<svg width="162" height="32" viewBox="0 0 162 32" fill="none" xmlns="http://www.w3.org/2000/svg">
<g clip-path="url(#clip0_1_2)">
<path d="M0 7.27272C0 3.25611 3.19177 0 7.12903 0H31.3677V17.4545C31.3677 21.4712 28.1759 24.7273 24.2387 24.7273H15.6839V32H7.12902C3.19177 32 0 28.7439 0 24.7273V7.27272Z" fill="#73E0A9"/>
<path opacity="0.4" d="M4.12695 28.3075C4.12695 26.2683 5.74384 24.6152 7.73837 24.6152H15.6835V31.9999H7.73837C5.74384 31.9999 4.12695 30.3468 4.12695 28.3075Z" fill="white"/>
<path d="M47.4326 25.679C47.4326 25.9198 47.3488 26.1235 47.1811 26.2902C47.0321 26.4384 46.8365 26.5125 46.5944 26.5125C46.3522 26.5125 46.1473 26.4384 45.9797 26.2902C45.8307 26.1235 45.7562 25.9198 45.7562 25.679V12.8989C45.7562 12.6581 45.8307 12.4636 45.9797 12.3154C46.1473 12.1487 46.3522 12.0654 46.5944 12.0654C46.8365 12.0654 47.0321 12.1487 47.1811 12.3154C47.3488 12.4636 47.4326 12.6581 47.4326 12.8989V25.679ZM46.5944 10.2039C46.2219 10.2039 45.9331 10.1206 45.7282 9.95387C45.5233 9.76865 45.4209 9.50934 45.4209 9.17595V8.89812C45.4209 8.56472 45.5233 8.31468 45.7282 8.14798C45.9518 7.96276 46.2498 7.87015 46.6223 7.87015C47.3674 7.87015 47.7399 8.2128 47.7399 8.89812V9.17595C47.7399 9.50934 47.6375 9.76865 47.4326 9.95387C47.2463 10.1206 46.9669 10.2039 46.5944 10.2039Z" fill="white"/>
<path d="M57.5432 11.982C59.2755 11.982 60.5422 12.4914 61.3431 13.5101C62.1627 14.5103 62.5725 15.8439 62.5725 17.5108V25.679C62.5725 25.9198 62.4887 26.1235 62.321 26.2902C62.1534 26.4384 61.9578 26.5125 61.7343 26.5125C61.4921 26.5125 61.2872 26.4384 61.1196 26.2902C60.9706 26.1235 60.8961 25.9198 60.8961 25.679V17.5942C60.8961 16.3903 60.5887 15.4178 59.974 14.677C59.378 13.9176 58.4466 13.5379 57.18 13.5379C56.3791 13.5379 55.6154 13.7231 54.8889 14.0935C54.1811 14.464 53.6037 14.9641 53.1566 15.5938C52.7096 16.205 52.4861 16.8718 52.4861 17.5942V25.679C52.4861 25.9198 52.4022 26.1235 52.2346 26.2902C52.0856 26.4384 51.89 26.5125 51.6479 26.5125C51.4057 26.5125 51.2008 26.4384 51.0332 26.2902C50.8842 26.1235 50.8096 25.9198 50.8096 25.679V13.2323C50.8096 12.9915 50.8842 12.797 51.0332 12.6488C51.2008 12.4821 51.4057 12.3988 51.6479 12.3988C51.89 12.3988 52.0856 12.4821 52.2346 12.6488C52.4022 12.797 52.4861 12.9915 52.4861 13.2323V14.7603C52.989 13.9639 53.7061 13.3063 54.6375 12.7877C55.5874 12.2506 56.556 11.982 57.5432 11.982Z" fill="white"/>
<path d="M70.958 7.53675C70.362 7.53675 69.8963 7.73123 69.561 8.12019C69.2444 8.50916 69.086 9.0463 69.086 9.73162V12.5932H72.2153C72.4202 12.5932 72.5972 12.6673 72.7462 12.8155C72.9139 12.9637 72.9977 13.1489 72.9977 13.3712C72.9977 13.5934 72.9139 13.7787 72.7462 13.9268C72.5972 14.075 72.4202 14.1491 72.2153 14.1491H69.086V25.679C69.086 25.9198 69.0022 26.1235 68.8346 26.2902C68.6856 26.4384 68.49 26.5125 68.2478 26.5125C68.0057 26.5125 67.8008 26.4384 67.6332 26.2902C67.4841 26.1235 67.4096 25.9198 67.4096 25.679V14.1491H65.37C65.1465 14.1491 64.9602 14.075 64.8112 13.9268C64.6622 13.7601 64.5877 13.5749 64.5877 13.3712C64.5877 13.1304 64.6622 12.9452 64.8112 12.8155C64.9602 12.6673 65.1465 12.5932 65.37 12.5932H67.4096V9.73162C67.4096 8.56473 67.7449 7.66641 68.4155 7.03666C69.1047 6.38839 70.0174 6.06426 71.1536 6.06426C71.6752 6.06426 72.1595 6.1476 72.6065 6.3143C73.0535 6.46248 73.2771 6.71252 73.2771 7.06444C73.2771 7.28671 73.2026 7.47193 73.0536 7.6201C72.9045 7.76828 72.7369 7.84236 72.5506 7.84236C72.383 7.84236 72.1781 7.79606 71.9359 7.70345C71.5262 7.59232 71.2002 7.53675 70.958 7.53675ZM77.6916 25.679C77.6916 25.9198 77.6078 26.1235 77.4402 26.2902C77.2911 26.4384 77.0956 26.5125 76.8534 26.5125C76.6113 26.5125 76.4064 26.4384 76.2387 26.2902C76.0897 26.1235 76.0152 25.9198 76.0152 25.679V6.78661C76.0152 6.54583 76.0897 6.35135 76.2387 6.20317C76.4064 6.03647 76.6113 5.95312 76.8534 5.95312C77.0956 5.95312 77.2911 6.03647 77.4402 6.20317C77.6078 6.35135 77.6916 6.54583 77.6916 6.78661V25.679Z" fill="white"/>
<path d="M91.9693 12.3988C92.2114 12.3988 92.407 12.4821 92.556 12.6488C92.7237 12.797 92.8075 12.9915 92.8075 13.2323V21.067C92.8075 22.8822 92.2953 24.2806 91.2708 25.2623C90.2463 26.2254 88.8307 26.707 87.0239 26.707C85.2357 26.707 83.8294 26.2254 82.8049 25.2623C81.7991 24.2806 81.2961 22.8822 81.2961 21.067V13.2323C81.2961 12.9915 81.3706 12.797 81.5197 12.6488C81.6873 12.4821 81.8922 12.3988 82.1343 12.3988C82.3765 12.3988 82.5721 12.4821 82.7211 12.6488C82.8887 12.797 82.9725 12.9915 82.9725 13.2323V21.067C82.9725 22.4006 83.3265 23.4193 84.0343 24.1232C84.7421 24.8085 85.7386 25.1511 87.0239 25.1511C88.3278 25.1511 89.3336 24.8085 90.0414 24.1232C90.7679 23.4193 91.1311 22.4006 91.1311 21.067V13.2323C91.1311 12.9915 91.2056 12.797 91.3546 12.6488C91.5223 12.4821 91.7271 12.3988 91.9693 12.3988Z" fill="white"/>
<path d="M108.296 18.5944C108.296 18.8166 108.212 19.0111 108.044 19.1778C107.877 19.326 107.681 19.4001 107.458 19.4001H96.8962C96.8962 20.5114 97.1197 21.5116 97.5667 22.4006C98.0324 23.2712 98.6843 23.9657 99.5225 24.4844C100.379 24.9844 101.385 25.2345 102.54 25.2345C103.434 25.2345 104.235 25.0493 104.943 24.6788C105.651 24.3084 106.219 23.8361 106.647 23.2619C106.852 23.0952 107.048 23.0119 107.234 23.0119C107.42 23.0119 107.588 23.0859 107.737 23.2341C107.886 23.3823 107.96 23.549 107.96 23.7342C107.96 23.938 107.867 24.1324 107.681 24.3177C107.085 25.04 106.331 25.6327 105.418 26.0958C104.524 26.5588 103.574 26.7903 102.568 26.7903C101.134 26.7903 99.8671 26.4847 98.7682 25.8735C97.6692 25.2623 96.8123 24.4103 96.1977 23.3175C95.583 22.2062 95.2756 20.9281 95.2756 19.4834C95.2756 17.9646 95.5737 16.6403 96.1697 15.5105C96.7844 14.3621 97.5947 13.4916 98.6005 12.8989C99.6064 12.2876 100.677 11.982 101.814 11.982C102.931 11.982 103.974 12.2413 104.943 12.7599C105.93 13.2786 106.731 14.038 107.346 15.0381C107.96 16.0383 108.277 17.2237 108.296 18.5944ZM101.814 13.5934C100.733 13.5934 99.7274 13.9639 98.7961 14.7048C97.8834 15.4456 97.2966 16.5106 97.0359 17.8998H106.563V17.6775C106.47 16.844 106.191 16.1217 105.725 15.5105C105.26 14.8807 104.673 14.4084 103.965 14.0935C103.276 13.7601 102.559 13.5934 101.814 13.5934Z" fill="white"/>
<path d="M117.507 11.982C119.239 11.982 120.506 12.4914 121.307 13.5101C122.126 14.5103 122.536 15.8439 122.536 17.5108V25.679C122.536 25.9198 122.452 26.1235 122.284 26.2902C122.117 26.4384 121.921 26.5125 121.698 26.5125C121.456 26.5125 121.251 26.4384 121.083 26.2902C120.934 26.1235 120.859 25.9198 120.859 25.679V17.5942C120.859 16.3903 120.552 15.4178 119.937 14.677C119.341 13.9176 118.41 13.5379 117.143 13.5379C116.342 13.5379 115.579 13.7231 114.852 14.0935C114.145 14.464 113.567 14.9641 113.12 15.5938C112.673 16.205 112.449 16.8718 112.449 17.5942V25.679C112.449 25.9198 112.366 26.1235 112.198 26.2902C112.049 26.4384 111.853 26.5125 111.611 26.5125C111.369 26.5125 111.164 26.4384 110.997 26.2902C110.848 26.1235 110.773 25.9198 110.773 25.679V13.2323C110.773 12.9915 110.848 12.797 110.997 12.6488C111.164 12.4821 111.369 12.3988 111.611 12.3988C111.853 12.3988 112.049 12.4821 112.198 12.6488C112.366 12.797 112.449 12.9915 112.449 13.2323V14.7603C112.952 13.9639 113.67 13.3063 114.601 12.7877C115.551 12.2506 116.519 11.982 117.507 11.982Z" fill="white"/>
<path d="M132.123 11.982C132.998 11.982 133.809 12.0839 134.554 12.2876C135.317 12.4729 135.923 12.7322 136.37 13.0656C136.835 13.399 137.068 13.7601 137.068 14.1491C137.068 14.3528 136.994 14.5381 136.845 14.7048C136.714 14.8715 136.547 14.9548 136.342 14.9548C136.156 14.9548 135.997 14.9178 135.867 14.8437C135.755 14.7696 135.625 14.6584 135.476 14.5103C135.234 14.2695 135.001 14.0935 134.777 13.9824C134.498 13.8527 134.125 13.7509 133.66 13.6768C133.213 13.5842 132.728 13.5379 132.207 13.5379C131.182 13.5379 130.242 13.7972 129.385 14.3158C128.547 14.8344 127.885 15.5382 127.401 16.4273C126.917 17.3164 126.675 18.298 126.675 19.3723C126.675 20.4836 126.907 21.4838 127.373 22.3728C127.839 23.2619 128.481 23.9657 129.301 24.4844C130.139 24.9844 131.089 25.2345 132.151 25.2345C132.821 25.2345 133.352 25.1789 133.743 25.0678C134.153 24.9567 134.554 24.7992 134.945 24.5955C135.075 24.5214 135.299 24.3547 135.615 24.0954C135.764 23.9657 135.895 23.8731 136.007 23.8176C136.118 23.7435 136.239 23.7064 136.37 23.7064C136.593 23.7064 136.77 23.7805 136.901 23.9287C137.031 24.0583 137.096 24.2343 137.096 24.4566C137.096 24.7714 136.873 25.1141 136.426 25.4845C135.979 25.8365 135.364 26.1421 134.582 26.4014C133.799 26.6607 132.933 26.7903 131.983 26.7903C130.623 26.7903 129.413 26.4755 128.351 25.8457C127.289 25.1974 126.46 24.3084 125.864 23.1786C125.287 22.0487 124.998 20.78 124.998 19.3723C124.998 18.0202 125.296 16.7885 125.892 15.6772C126.488 14.5473 127.326 13.649 128.407 12.9822C129.487 12.3154 130.726 11.982 132.123 11.982Z" fill="white"/>
<path d="M151.392 18.5944C151.392 18.8166 151.309 19.0111 151.141 19.1778C150.973 19.326 150.778 19.4001 150.554 19.4001H139.993C139.993 20.5114 140.216 21.5116 140.663 22.4006C141.129 23.2712 141.781 23.9657 142.619 24.4844C143.476 24.9844 144.482 25.2345 145.637 25.2345C146.531 25.2345 147.332 25.0493 148.04 24.6788C148.747 24.3084 149.316 23.8361 149.744 23.2619C149.949 23.0952 150.144 23.0119 150.331 23.0119C150.517 23.0119 150.685 23.0859 150.834 23.2341C150.983 23.3823 151.057 23.549 151.057 23.7342C151.057 23.938 150.964 24.1324 150.778 24.3177C150.182 25.04 149.427 25.6327 148.515 26.0958C147.621 26.5588 146.671 26.7903 145.665 26.7903C144.23 26.7903 142.964 26.4847 141.865 25.8735C140.766 25.2623 139.909 24.4103 139.294 23.3175C138.68 22.2062 138.372 20.9281 138.372 19.4834C138.372 17.9646 138.67 16.6403 139.266 15.5105C139.881 14.3621 140.691 13.4916 141.697 12.8989C142.703 12.2876 143.774 11.982 144.91 11.982C146.028 11.982 147.071 12.2413 148.04 12.7599C149.027 13.2786 149.828 14.038 150.442 15.0381C151.057 16.0383 151.374 17.2237 151.392 18.5944ZM144.91 13.5934C143.83 13.5934 142.824 13.9639 141.893 14.7048C140.98 15.4456 140.393 16.5106 140.133 17.8998H149.66V17.6775C149.567 16.844 149.288 16.1217 148.822 15.5105C148.356 14.8807 147.77 14.4084 147.062 14.0935C146.373 13.7601 145.655 13.5934 144.91 13.5934Z" fill="white"/>
<path d="M160.547 11.982C160.92 11.982 161.255 12.0561 161.553 12.2043C161.851 12.3525 162 12.5747 162 12.8711C162 13.1304 161.926 13.3434 161.777 13.5101C161.628 13.6583 161.451 13.7324 161.246 13.7324C161.153 13.7324 160.967 13.686 160.687 13.5934C160.426 13.5008 160.175 13.4545 159.933 13.4545C159.244 13.4545 158.554 13.7231 157.865 14.2602C157.195 14.7788 156.636 15.4549 156.189 16.2884C155.76 17.1219 155.546 17.9646 155.546 18.8166V25.679C155.546 25.9198 155.462 26.1235 155.295 26.2902C155.146 26.4384 154.95 26.5125 154.708 26.5125C154.466 26.5125 154.261 26.4384 154.093 26.2902C153.944 26.1235 153.87 25.9198 153.87 25.679V13.2323C153.87 12.9915 153.944 12.797 154.093 12.6488C154.261 12.4821 154.466 12.3988 154.708 12.3988C154.95 12.3988 155.146 12.4821 155.295 12.6488C155.462 12.797 155.546 12.9915 155.546 13.2323V15.6772C155.975 14.6214 156.617 13.7509 157.474 13.0656C158.349 12.3617 159.374 12.0005 160.547 11.982Z" fill="white"/>
</g>
<defs>
<clipPath id="clip0_1_2">
<rect width="162" height="32" fill="white"/>
</clipPath>
</defs>
</svg>
