<svg width="115" height="115" viewBox="0 0 115 115" fill="none" xmlns="http://www.w3.org/2000/svg">
<g opacity="0.5">
<path d="M57.8428 102.886C32.8312 102.886 12.4824 82.5272 12.4824 57.5288H25.0096C25.0096 64.0233 26.9354 70.3719 30.5435 75.7718C34.1517 81.1717 39.28 85.3805 45.28 87.8658C51.2801 90.3511 57.8825 91.0014 64.2522 89.7344C70.6218 88.4674 76.4727 85.34 81.0649 80.7478C85.6572 76.1555 88.7846 70.3046 90.0516 63.9349C91.3186 57.5653 90.6684 50.9629 88.1831 44.9629C85.6977 38.9628 81.489 33.8344 76.089 30.2263C70.6891 26.6182 64.3405 24.6923 57.8461 24.6923V12.1816C82.8577 12.1816 103.206 32.5403 103.206 57.542C103.206 82.5437 82.8544 102.886 57.8428 102.886Z" fill="url(#paint0_linear_14_18505)"/>
<path d="M57.9511 90.4139C49.2223 90.4139 40.851 86.9464 34.6788 80.7741C28.5066 74.6019 25.0391 66.2307 25.0391 57.5019C25.0391 48.773 28.5066 40.4017 34.6788 34.2295C40.851 28.0573 49.2223 24.5898 57.9511 24.5898V37.117C52.5447 37.117 47.3597 39.2646 43.5368 43.0875C39.7139 46.9105 37.5662 52.0954 37.5662 57.5019C37.5662 62.9083 39.7139 68.0932 43.5368 71.9162C47.3597 75.7391 52.5447 77.8868 57.9511 77.8868V90.4139Z" fill="url(#paint1_linear_14_18505)"/>
<path d="M57.5 115V102.483C82.2982 102.483 102.486 82.3079 102.486 57.4967C102.486 32.6854 82.3113 12.5107 57.5 12.5107C32.6888 12.5107 12.514 32.6854 12.514 57.4967H0C0 25.7931 25.7964 0 57.5 0C89.2037 0 115 25.7931 115 57.4967C115 89.2003 89.2037 115 57.5 115Z" fill="url(#paint2_linear_14_18505)"/>
</g>
<defs>
<linearGradient id="paint0_linear_14_18505" x1="11.7442" y1="12.1816" x2="109.382" y2="19.4043" gradientUnits="userSpaceOnUse">
<stop stop-color="#B5D43B"/>
<stop offset="1" stop-color="#434738"/>
</linearGradient>
<linearGradient id="paint1_linear_14_18505" x1="24.7712" y1="24.5898" x2="60.3366" y2="25.905" gradientUnits="userSpaceOnUse">
<stop stop-color="#B5D43B"/>
<stop offset="1" stop-color="#434738"/>
</linearGradient>
<linearGradient id="paint2_linear_14_18505" x1="-0.935805" y1="4.95804e-06" x2="122.828" y2="9.15331" gradientUnits="userSpaceOnUse">
<stop stop-color="#B5D43B"/>
<stop offset="1" stop-color="#434738"/>
</linearGradient>
</defs>
</svg>
