<svg width="535" height="571" viewBox="0 0 535 571" fill="none" xmlns="http://www.w3.org/2000/svg">
<g opacity="0.2">
<g opacity="0.2">
<path d="M350.142 397.031C347.181 394.081 344.876 390.596 343.321 386.803C343.346 386.874 343.371 386.946 343.395 387.019C345.32 392.053 348.446 396.54 352.503 400.089C356.561 403.64 361.427 406.144 366.676 407.382C371.925 408.62 377.397 408.555 382.615 407.193C387.833 405.83 392.638 403.211 396.612 399.565C399.976 396.462 402.66 392.695 404.493 388.502C406.327 384.275 407.274 379.718 407.275 375.111L407.08 371.654C406.973 370.834 406.836 369.991 406.7 369.144C406.65 368.839 406.601 368.534 406.553 368.229C406.438 367.497 406.229 366.805 406.009 366.078C405.894 365.696 405.775 365.304 405.666 364.891C405.468 364.147 405.18 363.456 404.877 362.732C404.735 362.393 404.59 362.047 404.45 361.684C402.611 357.499 399.927 353.74 396.567 350.641C393.238 347.612 389.336 345.28 385.091 343.782C376.977 340.997 368.101 341.462 360.323 345.078C352.548 348.693 346.473 355.177 343.372 363.171C343.361 363.203 343.35 363.236 343.339 363.269C344.118 361.38 345.084 359.564 346.231 357.85C349.644 352.745 354.497 348.77 360.173 346.428C365.849 344.085 372.093 343.482 378.113 344.694C384.133 345.906 389.657 348.879 393.984 353.235C398.295 357.57 401.228 363.083 402.414 369.08C403.6 375.078 402.985 381.293 400.648 386.942C398.31 392.591 394.354 397.423 389.277 400.829C384.2 404.236 378.23 406.065 372.116 406.086H372.115C363.88 406.1 355.976 402.842 350.142 397.031Z" fill="#02B784" stroke="url(#paint0_linear_9_16977)"/>
<path d="M337.083 375.092L337.083 375.102C337.035 379.715 337.896 384.291 339.616 388.571L339.616 388.572C340.475 390.719 341.518 392.788 342.733 394.756C343.97 396.723 345.394 398.565 346.987 400.256L346.99 400.26C350.285 403.824 354.253 406.702 358.665 408.726C363.076 410.751 367.845 411.883 372.696 412.058C377.547 412.232 382.385 411.446 386.93 409.743C391.476 408.041 395.639 405.456 399.182 402.139C401.004 400.409 402.654 398.506 404.109 396.458L404.111 396.457C405.581 394.405 406.823 392.199 407.812 389.877L407.814 389.874C409.838 385.214 410.883 380.189 410.883 375.108C410.883 370.028 409.838 365.003 407.814 360.344C405.786 355.72 402.849 351.551 399.177 348.085C395.631 344.776 391.467 342.2 386.923 340.503C382.38 338.806 377.546 338.022 372.698 338.196C367.851 338.369 363.086 339.498 358.675 341.516C354.265 343.535 350.295 346.403 346.995 349.958L346.992 349.96C345.4 351.649 343.977 353.49 342.744 355.456C341.527 357.423 340.482 359.492 339.622 361.64L339.621 361.64C337.901 365.915 337.039 370.485 337.083 375.092ZM337.144 375.098V375.098C337.129 366.423 340.341 358.052 346.156 351.614C351.97 345.176 359.971 341.13 368.603 340.264C377.235 339.398 385.88 341.774 392.858 346.929C399.835 352.084 404.646 359.65 406.354 368.155C408.063 376.66 406.546 385.497 402.101 392.947C397.655 400.396 390.597 405.926 382.301 408.46C374.004 410.994 365.061 410.352 357.212 406.658C349.362 402.965 343.167 396.483 339.831 388.475L339.831 388.475C338.066 384.236 337.154 379.69 337.144 375.098Z" fill="#02B784" stroke="url(#paint1_linear_9_16977)"/>
<path d="M335.869 390.122L335.87 390.125C337.776 394.936 340.588 399.337 344.154 403.088L344.156 403.09C348.78 408.008 354.555 411.696 360.961 413.824C367.367 415.951 374.202 416.45 380.849 415.276C387.496 414.102 393.746 411.292 399.035 407.099C404.325 402.906 408.488 397.462 411.148 391.258L411.148 391.258C413.345 386.154 414.479 380.655 414.479 375.099C414.479 369.542 413.345 364.044 411.148 358.94C408.948 353.873 405.755 349.297 401.759 345.483C397.871 341.805 393.297 338.93 388.297 337.021C383.297 335.112 377.97 334.207 372.62 334.358C367.269 334.509 362.002 335.714 357.118 337.902C352.233 340.091 347.829 343.221 344.155 347.113L344.153 347.115C342.37 348.987 340.772 351.026 339.38 353.204C338.008 355.386 336.834 357.686 335.869 360.075L335.869 360.076C333.939 364.845 332.967 369.947 333.008 375.092L333.008 375.1C332.967 380.246 333.939 385.35 335.869 390.122ZM333.268 375.096C333.257 365.462 336.83 356.167 343.292 349.021C349.754 341.874 358.643 337.387 368.23 336.43C377.817 335.474 387.418 338.117 395.164 343.846C402.91 349.575 408.249 357.981 410.142 367.428C412.035 376.875 410.347 386.688 405.406 394.959C400.465 403.231 392.625 409.369 383.409 412.18C374.194 414.992 364.262 414.275 355.546 410.17C346.829 406.065 339.951 398.865 336.248 389.97C334.286 385.257 333.274 380.202 333.268 375.096Z" fill="#02B784" stroke="url(#paint2_linear_9_16977)"/>
<path d="M328.946 375.094L328.946 375.101C328.911 380.778 329.994 386.406 332.134 391.664L332.135 391.667C334.252 396.962 337.371 401.799 341.321 405.912L341.322 405.913C346.409 411.246 352.741 415.232 359.749 417.514C366.757 419.796 374.222 420.302 381.474 418.987C388.726 417.671 395.538 414.576 401.298 409.978C407.058 405.381 411.587 399.425 414.477 392.645L414.477 392.645C416.843 387.098 418.062 381.131 418.062 375.101C418.062 369.071 416.843 363.104 414.477 357.557C412.105 352.041 408.655 347.053 404.33 342.886C397.917 336.761 389.826 332.683 381.087 331.171C372.349 329.66 363.358 330.783 355.26 334.398C352.636 335.58 350.133 337.016 347.79 338.686C345.467 340.351 343.298 342.22 341.309 344.273C337.361 348.386 334.24 353.22 332.118 358.512L332.117 358.514C329.981 363.779 328.904 369.413 328.946 375.094ZM329.352 375.099L329.351 374.598H329.372C329.488 364.185 333.408 354.167 340.404 346.437C347.512 338.584 357.287 333.655 367.827 332.609C378.368 331.563 388.92 334.475 397.433 340.777C405.946 347.08 411.811 356.323 413.887 366.71C415.963 377.097 414.101 387.884 408.665 396.975C403.228 406.065 394.605 412.809 384.473 415.895C374.34 418.98 363.422 418.187 353.841 413.67C344.261 409.152 336.703 401.233 332.638 391.452C330.481 386.269 329.365 380.713 329.352 375.099Z" fill="#02B784" stroke="url(#paint3_linear_9_16977)"/>
<path d="M324.908 375.594C325.016 388.055 329.933 400.001 338.644 408.931C347.471 417.98 359.492 423.211 372.13 423.503L372.131 423.503C381.829 423.747 391.377 421.067 399.532 415.812C407.687 410.557 414.072 402.969 417.857 394.037L417.857 394.037C420.396 388.045 421.705 381.604 421.705 375.097C421.705 368.589 420.397 362.149 417.857 356.157C414.059 347.236 407.671 339.66 399.52 334.408C391.369 329.157 381.83 326.472 372.136 326.701C359.51 327.019 347.506 332.256 338.685 341.295C329.863 350.335 324.921 362.463 324.912 375.094L324.911 375.594H324.908ZM325.453 375.094V375.094C325.452 363.535 329.749 352.388 337.509 343.822C345.27 335.255 355.939 329.881 367.442 328.744C378.945 327.607 390.459 330.788 399.747 337.67C409.034 344.551 415.43 354.641 417.691 365.977C419.953 377.312 417.918 389.084 411.982 399.002C406.046 408.92 396.633 416.277 385.574 419.64C374.516 423.004 362.601 422.135 352.148 417.202C341.694 412.269 333.449 403.624 329.016 392.95L329.015 392.949C326.668 387.289 325.458 381.222 325.453 375.094Z" fill="#02B784" stroke="url(#paint4_linear_9_16977)"/>
<path d="M320.875 375.097V375.097C320.864 387.155 325.026 398.845 332.654 408.184C340.283 417.522 350.907 423.933 362.725 426.329C374.542 428.725 386.825 426.958 397.488 421.327C408.15 415.697 416.537 406.551 421.223 395.441L421.223 395.441C425.315 385.755 426.391 375.06 424.309 364.754C422.228 354.447 417.086 345.008 409.555 337.671C402.193 330.51 392.884 325.677 382.792 323.777C372.699 321.877 362.27 322.993 352.808 326.987C343.346 330.98 335.271 337.673 329.591 346.23C323.912 354.786 320.88 364.827 320.875 375.097ZM321.512 375.097V375.097C321.51 362.555 326.173 350.46 334.593 341.165C343.013 331.87 354.59 326.039 367.071 324.805C379.552 323.572 392.046 327.024 402.123 334.492C412.2 341.959 419.139 352.907 421.592 365.207C424.045 377.506 421.835 390.279 415.393 401.04C408.951 411.801 398.737 419.782 386.738 423.43C374.738 427.079 361.81 426.134 350.469 420.779C339.127 415.425 330.182 406.044 325.374 394.46L325.373 394.46C322.832 388.321 321.52 381.742 321.512 375.097Z" fill="#02B784" stroke="url(#paint5_linear_9_16977)"/>
<path d="M320.957 353.901C318.36 360.259 316.973 367.042 316.862 373.902L316.879 373.884L316.872 375.097C316.831 382.369 318.224 389.577 320.973 396.309C323.721 403.041 327.771 409.164 332.889 414.329L332.891 414.331C338.009 419.556 344.092 423.738 350.803 426.645C361.019 431.026 372.306 432.273 383.231 430.228C394.157 428.184 404.229 422.939 412.169 415.16C417.474 409.927 421.687 403.693 424.562 396.818C427.437 389.944 428.918 382.566 428.918 375.114C428.918 367.663 427.437 360.285 424.562 353.41C421.687 346.536 417.474 340.302 412.169 335.069C404.225 327.292 394.149 322.049 383.221 320.006C372.292 317.964 361.003 319.213 350.786 323.595C344.079 326.497 337.996 330.669 332.874 335.882L332.872 335.883C327.754 341.047 323.705 347.17 320.957 353.901ZM321.721 395.972L321.721 395.971C318.981 389.352 317.569 382.259 317.566 375.095V375.094C317.572 361.586 322.6 348.562 331.674 338.556C340.749 328.549 353.22 322.275 366.663 320.952C380.107 319.63 393.562 323.355 404.412 331.402C415.261 339.449 422.731 351.244 425.368 364.492C428.004 377.741 425.62 391.496 418.678 403.084C411.736 414.672 400.732 423.265 387.807 427.19C374.881 431.116 360.958 430.094 348.744 424.325C336.53 418.555 326.898 408.449 321.721 395.972Z" fill="#02B784" stroke="url(#paint6_linear_9_16977)"/>
<path d="M312.874 374.817L312.892 374.829L312.891 375.098C312.86 382.886 314.364 390.604 317.318 397.81C320.272 405.017 324.617 411.57 330.105 417.096L330.106 417.098C338.398 425.526 348.999 431.309 360.573 433.72C372.147 436.131 384.176 435.061 395.143 430.645L395.143 430.645C402.485 427.698 409.167 423.32 414.799 417.765C420.443 412.183 424.924 405.537 427.982 398.211C431.041 390.885 432.615 383.026 432.615 375.087C432.615 367.149 431.041 359.289 427.982 351.963C424.924 344.638 420.443 337.991 414.799 332.409L414.799 332.409C406.398 324.093 395.722 318.452 384.118 316.198C372.515 313.943 360.503 315.177 349.6 319.742C338.696 324.307 329.389 331.999 322.853 341.849C316.365 351.624 312.896 363.089 312.874 374.817ZM313.604 375.596H313.585L313.585 375.095C313.592 360.604 318.988 346.634 328.724 335.901C338.46 325.168 351.839 318.439 366.261 317.022C380.682 315.606 395.115 319.603 406.753 328.237C418.391 336.871 426.402 349.524 429.229 363.737C432.055 377.95 429.495 392.705 422.047 405.135C414.598 417.565 402.793 426.781 388.927 430.99C375.061 435.2 360.125 434.102 347.023 427.911C333.921 421.719 323.59 410.877 318.039 397.491L318.039 397.491C315.17 390.543 313.665 383.109 313.604 375.596Z" fill="#02B784" stroke="url(#paint7_linear_9_16977)"/>
<path d="M327.292 419.894L327.293 419.895C336.14 428.845 347.439 434.975 359.765 437.512C372.091 440.049 384.892 438.879 396.553 434.15L396.554 434.15C404.344 430.995 411.431 426.326 417.402 420.411L417.404 420.409C423.426 414.516 428.219 407.487 431.506 399.729C434.793 391.971 436.509 383.638 436.554 375.213C436.599 366.787 434.973 358.437 431.769 350.644C428.566 342.851 423.848 335.771 417.891 329.814C411.933 323.856 404.852 319.139 397.059 315.936C389.266 312.733 380.916 311.108 372.49 311.153C364.065 311.199 355.732 312.915 347.974 316.203C340.217 319.49 333.188 324.284 327.295 330.305L327.292 330.308C321.432 336.198 316.79 343.186 313.632 350.871C310.474 358.556 308.861 366.788 308.887 375.097V375.1C308.862 383.41 310.474 391.643 313.632 399.329C316.79 407.015 321.432 414.003 327.292 419.894ZM309.581 375.099V375.099C309.582 359.601 315.346 344.657 325.753 333.174C336.161 321.691 350.467 314.489 365.89 312.969C381.313 311.449 396.75 315.72 409.199 324.951C421.647 334.182 430.218 347.713 433.243 362.912C436.269 378.112 433.533 393.893 425.568 407.187C417.602 420.481 404.977 430.338 390.148 434.839C375.319 439.341 359.345 438.167 345.334 431.544C331.322 424.921 320.275 413.324 314.34 399.008L314.34 399.008C311.201 391.427 309.584 383.303 309.581 375.099Z" fill="#02B784" stroke="url(#paint8_linear_9_16977)"/>
<path d="M420.024 422.993L420.025 422.993C427.127 415.946 432.575 407.409 435.975 397.999C439.375 388.589 440.642 378.541 439.684 368.582C438.726 358.623 435.568 349 430.437 340.411C425.306 331.821 418.331 324.479 410.015 318.915C401.7 313.35 392.253 309.703 382.355 308.236C372.458 306.769 362.359 307.519 352.787 310.432C343.215 313.345 334.41 318.349 327.008 325.081C319.606 331.812 313.793 340.104 309.987 349.358C306.647 357.524 304.944 366.268 304.976 375.092V375.094C304.963 388.428 308.902 401.467 316.294 412.565C323.687 423.662 334.202 432.32 346.512 437.445C358.822 442.57 372.375 443.932 385.458 441.36C398.542 438.788 410.57 432.397 420.024 422.993ZM305.638 375.594H305.613L305.614 375.093C305.623 358.613 311.761 342.725 322.835 330.519C333.908 318.313 349.125 310.662 365.527 309.053C381.929 307.444 398.343 311.992 411.577 321.813C424.811 331.634 433.92 346.027 437.132 362.191C440.344 378.356 437.43 395.137 428.955 409.272C420.481 423.407 407.053 433.885 391.282 438.668C375.511 443.452 358.525 442.2 343.626 435.154C328.728 428.109 316.981 415.775 310.672 400.55L310.672 400.549C307.405 392.63 305.697 384.157 305.638 375.594Z" fill="#02B784" stroke="url(#paint9_linear_9_16977)"/>
<path d="M301.037 375.094C301.088 392.733 307.698 409.723 319.582 422.759C331.465 435.794 347.773 443.944 365.332 445.623C382.891 447.302 400.447 442.391 414.586 431.843C428.725 421.296 438.435 405.867 441.829 388.557C445.222 371.247 442.056 353.294 432.947 338.189C423.837 323.083 409.435 311.906 392.542 306.831C375.648 301.756 357.471 303.145 341.545 310.729C325.619 318.313 313.083 331.549 306.375 347.863C302.828 356.503 301.015 365.755 301.037 375.094ZM301.584 375.095C301.587 357.6 308.097 340.731 319.847 327.77C331.598 314.808 347.749 306.68 365.161 304.967C382.572 303.254 399.998 308.077 414.049 318.5C428.101 328.922 437.774 344.199 441.187 361.358C444.6 378.517 441.509 396.332 432.515 411.338C423.521 426.345 409.268 437.47 392.526 442.549C375.785 447.629 357.752 446.301 341.936 438.822C326.12 431.344 313.65 418.25 306.953 402.088C303.408 393.53 301.583 384.358 301.584 375.095Z" fill="#02B784" stroke="url(#paint10_linear_9_16977)"/>
<path d="M305.95 409.297L305.95 409.297C297.459 392.876 295.379 373.883 300.114 356.013C304.849 338.143 316.061 322.673 331.57 312.61C347.078 302.548 365.775 298.614 384.024 301.572C402.272 304.53 418.768 314.17 430.304 328.616C441.84 343.062 447.591 361.282 446.438 379.733C445.285 398.184 437.312 415.547 424.068 428.445C410.824 441.343 393.256 448.854 374.781 449.518C356.306 450.182 338.245 443.951 324.109 432.037L324.109 432.037C316.624 425.721 310.454 417.994 305.95 409.297ZM305.574 409.49C314.153 425.991 328.562 438.711 345.999 445.178C363.436 451.644 382.655 451.393 399.918 444.476C417.181 437.558 431.254 424.467 439.401 407.748C447.547 391.03 449.185 371.879 443.994 354.02C438.804 336.162 427.158 320.872 411.32 311.124C395.482 301.376 376.584 297.867 358.302 301.279C340.02 304.691 323.661 314.781 312.405 329.586C301.15 344.39 295.803 362.852 297.404 381.381C298.259 391.195 301.035 400.746 305.574 409.49Z" fill="#02B784" stroke="url(#paint11_linear_9_16977)"/>
<path d="M315.484 429.517L315.483 429.517C301.983 415.457 294.194 396.879 293.631 377.395C293.069 357.911 299.773 338.914 312.439 324.099C325.106 309.284 342.83 299.709 362.165 297.237C381.499 294.764 401.062 299.571 417.049 310.723C433.036 321.874 444.304 338.573 448.662 357.571C453.02 376.57 450.157 396.51 440.628 413.514C431.1 430.519 415.588 443.372 397.109 449.573C378.63 455.775 358.505 454.883 340.647 447.069L340.647 447.069C331.19 442.924 322.64 436.96 315.484 429.517ZM315.296 429.696C328.877 443.786 347.213 452.321 366.738 453.641C386.263 454.961 405.581 448.973 420.935 436.84C436.289 424.707 446.582 407.297 449.812 387.996C453.041 368.695 448.977 348.882 438.409 332.412C427.841 315.941 411.525 303.99 392.634 298.882C373.743 293.774 353.627 295.875 336.199 304.775C318.771 313.676 305.277 328.741 298.34 347.04C291.403 365.339 291.52 385.563 298.668 403.781C302.457 413.426 308.107 422.232 315.296 429.696Z" fill="#02B784" stroke="url(#paint12_linear_9_16977)"/>
<path d="M301.118 417.381L301.118 417.38C290.625 399.763 287.059 378.873 291.113 358.773C295.168 338.672 306.553 320.798 323.055 308.626C339.557 296.454 359.996 290.855 380.398 292.917C400.799 294.979 419.705 304.555 433.438 319.783C439.342 326.33 444.109 333.72 447.62 341.648C440.205 324.834 427.366 310.912 411.071 302.17C392.993 292.472 371.955 289.844 352.047 294.797C332.139 299.75 314.785 311.93 303.359 328.968C291.933 346.006 287.252 366.685 290.226 386.983C291.807 397.739 295.49 408.079 301.065 417.412C307.45 428.091 316.105 437.098 326.306 443.867C325.096 443.061 323.905 442.222 322.734 441.349L322.733 441.349C314.027 434.854 306.683 426.71 301.118 417.381Z" fill="#02B784" stroke="url(#paint13_linear_9_16977)"/>
<mask id="path-15-inside-1_9_16977" fill="white">
<path d="M291.752 408.681C300.105 428.598 315.567 444.696 335.131 453.845C354.695 462.995 376.963 464.541 397.604 458.183C418.245 451.826 435.783 438.019 446.809 419.447C457.835 400.876 461.559 378.868 457.259 357.702C452.958 336.537 440.94 317.728 423.54 304.932C406.141 292.136 384.605 286.269 363.119 288.471C341.634 290.673 321.736 300.787 307.294 316.847C292.852 332.906 284.899 353.762 284.981 375.36C285.03 386.803 287.33 398.126 291.752 408.681ZM292.518 408.36C284.267 388.619 283.653 366.514 290.796 346.345C297.939 326.177 312.328 309.385 331.165 299.237C350.001 289.089 371.939 286.309 392.711 291.438C413.484 296.567 431.606 309.238 443.554 326.988C455.502 344.737 460.422 366.296 457.356 387.472C454.291 408.647 443.459 427.926 426.968 441.558C410.476 455.19 389.504 462.202 368.13 461.23C346.756 460.257 326.508 451.37 311.322 436.296C303.279 428.31 296.886 418.819 292.507 408.365L292.518 408.36Z"/>
</mask>
<path d="M291.752 408.681C300.105 428.598 315.567 444.696 335.131 453.845C354.695 462.995 376.963 464.541 397.604 458.183C418.245 451.826 435.783 438.019 446.809 419.447C457.835 400.876 461.559 378.868 457.259 357.702C452.958 336.537 440.94 317.728 423.54 304.932C406.141 292.136 384.605 286.269 363.119 288.471C341.634 290.673 321.736 300.787 307.294 316.847C292.852 332.906 284.899 353.762 284.981 375.36C285.03 386.803 287.33 398.126 291.752 408.681ZM292.518 408.36C284.267 388.619 283.653 366.514 290.796 346.345C297.939 326.177 312.328 309.385 331.165 299.237C350.001 289.089 371.939 286.309 392.711 291.438C413.484 296.567 431.606 309.238 443.554 326.988C455.502 344.737 460.422 366.296 457.356 387.472C454.291 408.647 443.459 427.926 426.968 441.558C410.476 455.19 389.504 462.202 368.13 461.23C346.756 460.257 326.508 451.37 311.322 436.296C303.279 428.31 296.886 418.819 292.507 408.365L292.518 408.36Z" fill="#02B784"/>
<path d="M284.981 375.36L283.981 375.364L283.981 375.363L284.981 375.36ZM292.518 408.36L293.44 407.975L293.826 408.897L292.904 409.283L292.518 408.36ZM311.322 436.296L310.618 437.006L310.618 437.006L311.322 436.296ZM292.507 408.365L291.585 408.751L291.198 407.828L292.121 407.442L292.507 408.365ZM292.674 408.294C300.931 427.982 316.216 443.895 335.555 452.94L334.708 454.751C314.919 445.497 299.279 429.213 290.83 409.067L292.674 408.294ZM335.555 452.94C354.894 461.984 376.906 463.512 397.31 457.228L397.898 459.139C377.02 465.57 354.497 464.006 334.708 454.751L335.555 452.94ZM397.31 457.228C417.713 450.943 435.05 437.295 445.949 418.937L447.669 419.958C436.516 438.743 418.776 452.708 397.898 459.139L397.31 457.228ZM445.949 418.937C456.848 400.579 460.53 378.823 456.279 357.901L458.239 357.503C462.589 378.912 458.821 401.173 447.669 419.958L445.949 418.937ZM456.279 357.901C452.028 336.979 440.147 318.386 422.948 305.738L424.133 304.126C441.732 317.069 453.889 336.095 458.239 357.503L456.279 357.901ZM422.948 305.738C405.748 293.089 384.46 287.289 363.221 289.466L363.017 287.477C384.75 285.249 406.533 291.184 424.133 304.126L422.948 305.738ZM363.221 289.466C341.983 291.643 322.313 301.641 308.038 317.515L306.55 316.178C321.158 299.934 341.285 289.704 363.017 287.477L363.221 289.466ZM308.038 317.515C293.762 333.39 285.9 354.006 285.981 375.356L283.981 375.363C283.898 353.518 291.943 332.422 306.55 316.178L308.038 317.515ZM285.981 375.355C286.029 386.668 288.304 397.86 292.674 408.294L290.83 409.067C286.357 398.391 284.03 386.939 283.981 375.364L285.981 375.355ZM291.595 408.746C283.249 388.775 282.628 366.414 289.854 346.012L291.739 346.679C284.679 366.614 285.285 388.462 293.44 407.975L291.595 408.746ZM289.854 346.012C297.08 325.609 311.635 308.623 330.69 298.357L331.639 300.117C313.021 310.148 298.799 326.744 291.739 346.679L289.854 346.012ZM330.69 298.357C349.745 288.09 371.938 285.278 392.951 290.467L392.472 292.409C371.94 287.339 350.257 290.087 331.639 300.117L330.69 298.357ZM392.951 290.467C413.964 295.655 432.297 308.474 444.384 326.429L442.725 327.546C430.915 310.002 413.003 297.478 392.472 292.409L392.951 290.467ZM444.384 326.429C456.47 344.385 461.447 366.194 458.346 387.615L456.366 387.328C459.397 366.398 454.534 345.09 442.725 327.546L444.384 326.429ZM458.346 387.615C455.245 409.036 444.287 428.538 427.605 442.329L426.331 440.787C442.63 427.313 453.336 408.258 456.366 387.328L458.346 387.615ZM427.605 442.329C410.922 456.119 389.707 463.212 368.085 462.229L368.176 460.231C389.302 461.192 410.031 454.262 426.331 440.787L427.605 442.329ZM368.085 462.229C346.463 461.245 325.979 452.254 310.618 437.006L312.027 435.586C327.036 450.485 347.049 459.269 368.176 460.231L368.085 462.229ZM310.618 437.006C302.482 428.927 296.014 419.326 291.585 408.751L293.43 407.978C297.758 418.312 304.077 427.693 312.027 435.586L310.618 437.006ZM292.121 407.442L292.132 407.438L292.904 409.283L292.893 409.287L292.121 407.442Z" fill="url(#paint14_linear_9_16977)" mask="url(#path-15-inside-1_9_16977)"/>
<path d="M372.119 465.796C322.027 465.796 281.421 425.189 281.421 375.098C281.421 325.007 322.027 284.4 372.119 284.4C422.21 284.4 462.816 325.007 462.816 375.098C462.816 425.189 422.21 465.796 372.119 465.796Z" stroke="url(#paint15_linear_9_16977)" stroke-miterlimit="10"/>
</g>
<g opacity="0.2">
<path d="M401.52 133.65C398.691 130.832 396.471 127.517 394.946 123.909C396.839 128.811 399.895 133.181 403.851 136.642C407.838 140.13 412.617 142.589 417.772 143.805C422.928 145.022 428.303 144.958 433.428 143.619C438.553 142.281 443.272 139.709 447.175 136.127C450.479 133.08 453.115 129.38 454.916 125.261C456.717 121.11 457.647 116.634 457.648 112.11L457.456 108.713C457.351 107.908 457.217 107.08 457.083 106.249C457.035 105.949 456.986 105.649 456.939 105.349C456.826 104.63 456.621 103.952 456.405 103.238C456.291 102.862 456.175 102.477 456.067 102.071C455.874 101.34 455.59 100.662 455.293 99.9511C455.153 99.618 455.011 99.2775 454.873 98.9208C453.067 94.8108 450.431 91.1183 447.131 88.075C443.861 85.0994 440.028 82.8087 435.859 81.3378C427.89 78.6028 419.172 79.0591 411.532 82.611C404.025 86.1016 398.131 92.3153 395.04 99.9842C395.768 98.3027 396.649 96.6826 397.676 95.1454C401.031 90.1292 405.8 86.2224 411.378 83.9207C416.956 81.6189 423.092 81.026 429.008 82.2171C434.924 83.4081 440.353 86.3295 444.605 90.6106C448.842 94.8705 451.725 100.288 452.89 106.182C454.055 112.077 453.451 118.184 451.154 123.736C448.857 129.287 444.969 134.036 439.98 137.383C434.991 140.731 429.123 142.528 423.114 142.549L423.114 142.549C415.02 142.563 407.253 139.362 401.52 133.65Z" fill="#02B784" stroke="url(#paint16_linear_9_16977)"/>
<path d="M388.703 112.09L388.703 112.1C388.657 116.63 389.503 121.125 391.192 125.329L391.192 125.33C392.036 127.439 393.06 129.471 394.254 131.404C395.468 133.336 396.867 135.146 398.432 136.807L398.435 136.81C401.672 140.311 405.569 143.137 409.902 145.126C414.235 147.115 418.919 148.227 423.684 148.398C428.448 148.57 433.2 147.797 437.665 146.125C442.129 144.453 446.219 141.914 449.698 138.656C451.488 136.956 453.109 135.088 454.538 133.076L454.54 133.075C455.984 131.06 457.203 128.893 458.176 126.612L458.177 126.609C460.165 122.032 461.191 117.096 461.191 112.106C461.191 107.116 460.165 102.18 458.177 97.6037C456.185 93.0618 453.3 88.967 449.694 85.5626C446.211 82.313 442.121 79.7824 437.658 78.1157C433.195 76.4488 428.447 75.6787 423.686 75.8495C418.925 76.0203 414.244 77.1286 409.912 79.111C405.58 81.0935 401.681 83.9111 398.44 87.4024L398.437 87.4052C396.873 89.0636 395.476 90.8714 394.264 92.8027C393.069 94.7353 392.043 96.7675 391.197 98.8768L391.197 98.8775C389.508 103.076 388.66 107.565 388.703 112.09ZM388.746 112.096V112.096C388.732 103.571 391.888 95.3446 397.602 89.0178C403.316 82.6909 411.179 78.7154 419.661 77.8645C428.144 77.0135 436.64 79.348 443.497 84.4139C450.353 89.4797 455.081 96.9147 456.76 105.273C458.439 113.631 456.949 122.315 452.58 129.636C448.211 136.956 441.275 142.39 433.122 144.881C424.969 147.371 416.181 146.74 408.467 143.11C400.753 139.48 394.665 133.111 391.387 125.242L391.387 125.242C389.653 121.075 388.756 116.609 388.746 112.096Z" fill="#02B784" stroke="url(#paint17_linear_9_16977)"/>
<path d="M387.511 126.854L387.512 126.857C389.384 131.583 392.147 135.906 395.649 139.59L395.651 139.592C400.193 144.422 405.865 148.045 412.158 150.135C418.45 152.224 425.163 152.715 431.692 151.562C438.221 150.408 444.36 147.648 449.556 143.53C454.751 139.411 458.84 134.064 461.453 127.97L461.453 127.97C463.611 122.956 464.725 117.556 464.725 112.098C464.725 106.64 463.612 101.239 461.453 96.2261C459.292 91.2487 456.156 86.7543 452.23 83.0082C448.412 79.3955 443.919 76.5709 439.008 74.6958C434.097 72.8206 428.864 71.9318 423.609 72.0804C418.354 72.229 413.18 73.412 408.382 75.5618C403.585 77.7116 399.258 80.7859 395.65 84.6091L395.648 84.6108C393.897 86.4492 392.327 88.4522 390.96 90.5919C389.613 92.7352 388.459 94.9937 387.511 97.3411L387.511 97.3414C385.616 102.026 384.661 107.038 384.701 112.091L384.701 112.099C384.661 117.154 385.616 122.167 387.511 126.854ZM384.939 112.095C384.928 102.627 388.439 93.494 394.789 86.4713C401.139 79.4486 409.874 75.0386 419.295 74.0988C428.717 73.1589 438.151 75.7565 445.763 81.3864C453.375 87.0163 458.621 95.276 460.482 104.559C462.342 113.843 460.683 123.486 455.828 131.614C450.972 139.742 443.268 145.774 434.212 148.537C425.156 151.3 415.396 150.596 406.831 146.562C398.265 142.528 391.506 135.453 387.867 126.712C385.94 122.08 384.944 117.113 384.939 112.095Z" fill="#02B784" stroke="url(#paint18_linear_9_16977)"/>
<path d="M380.711 112.092L380.711 112.099C380.676 117.675 381.74 123.204 383.842 128.369L383.843 128.372C385.922 133.573 388.986 138.324 392.866 142.364L392.867 142.365C397.864 147.603 404.083 151.519 410.967 153.76C417.851 156.001 425.183 156.498 432.307 155.206C439.43 153.914 446.121 150.874 451.779 146.358C457.437 141.842 461.885 135.991 464.724 129.332L464.724 129.332C467.048 123.884 468.246 118.022 468.246 112.099C468.246 106.176 467.048 100.314 464.725 94.8665C462.394 89.4477 459.005 84.5486 454.757 80.4561C448.458 74.4395 440.511 70.4337 431.927 68.9489C423.343 67.464 414.512 68.5674 406.558 72.1185C403.98 73.279 401.522 74.6896 399.22 76.3303C396.938 77.9652 394.808 79.8018 392.854 81.818C388.976 85.8581 385.911 90.6066 383.826 95.8047L383.825 95.8065C381.728 100.978 380.669 106.512 380.711 112.092ZM381.092 112.097L381.091 111.596H381.112C381.228 101.367 385.08 91.5256 391.953 83.9324C398.937 76.2156 408.542 71.3722 418.9 70.3442C429.258 69.3162 439.627 72.1771 447.993 78.3705C456.358 84.5639 462.121 93.647 464.161 103.854C466.201 114.06 464.372 124.661 459.03 133.594C453.687 142.527 445.214 149.154 435.257 152.186C425.3 155.218 414.571 154.438 405.157 149.999C395.742 145.56 388.316 137.778 384.321 128.167C382.201 123.074 381.105 117.614 381.092 112.097Z" fill="#02B784" stroke="url(#paint19_linear_9_16977)"/>
<path d="M376.743 112.593C376.851 124.831 381.681 136.562 390.236 145.331C398.906 154.219 410.714 159.357 423.128 159.645L423.129 159.645C432.655 159.884 442.034 157.252 450.044 152.09C458.055 146.928 464.326 139.475 468.044 130.7L468.044 130.7C470.539 124.815 471.824 118.488 471.824 112.096C471.824 105.704 470.539 99.3773 468.045 93.4922C464.313 84.7291 458.039 77.287 450.032 72.1287C442.026 66.9705 432.656 64.3333 423.134 64.5582C410.731 64.8704 398.941 70.0144 390.275 78.894C381.61 87.7736 376.756 99.6865 376.747 112.093L376.746 112.593H376.743ZM377.261 112.093V112.093C377.26 100.735 381.482 89.7818 389.108 81.3639C396.734 72.946 407.217 67.665 418.521 66.5477C429.824 65.4304 441.139 68.5568 450.265 75.3188C459.391 82.0809 465.676 91.9953 467.898 103.134C470.12 114.273 468.121 125.84 462.288 135.586C456.455 145.333 447.206 152.561 436.339 155.867C425.472 159.172 413.764 158.318 403.492 153.471C393.22 148.623 385.118 140.129 380.761 129.639L380.761 129.639C378.455 124.077 377.265 118.115 377.261 112.093Z" fill="#02B784" stroke="url(#paint20_linear_9_16977)"/>
<path d="M372.78 112.096V112.096C372.769 123.941 376.858 135.424 384.351 144.597C391.844 153.769 402.28 160.067 413.888 162.42C425.497 164.774 437.562 163.038 448.036 157.507C458.51 151.977 466.747 142.993 471.35 132.079L471.351 132.079C475.37 122.565 476.427 112.06 474.382 101.936C472.338 91.8119 467.287 82.5403 459.889 75.3323C452.658 68.2984 443.514 63.5516 433.6 61.685C423.686 59.8185 413.442 60.915 404.148 64.8375C394.853 68.7601 386.921 75.3347 381.342 83.7398C375.763 92.145 372.785 102.008 372.78 112.096ZM373.389 112.096V112.096C373.386 99.7716 377.968 87.8871 386.242 78.7534C394.516 69.6197 405.891 63.8897 418.156 62.6777C430.42 61.4657 442.697 64.8583 452.599 72.1958C462.501 79.5333 469.32 90.2911 471.73 102.377C474.14 114.464 471.969 127.014 465.639 137.588C459.309 148.163 449.272 156.005 437.481 159.59C425.69 163.175 412.987 162.246 401.842 156.985C390.698 151.723 381.908 142.505 377.183 131.123L377.183 131.122C374.685 125.09 373.396 118.626 373.389 112.096Z" fill="#02B784" stroke="url(#paint21_linear_9_16977)"/>
<path d="M372.86 91.2739C370.312 97.5129 368.95 104.168 368.838 110.899L368.855 110.882L368.848 112.096C368.807 119.238 370.176 126.319 372.875 132.931C375.575 139.544 379.553 145.559 384.581 150.632L384.583 150.635C389.611 155.767 395.586 159.875 402.178 162.731C412.213 167.034 423.3 168.259 434.032 166.251C444.765 164.242 454.658 159.09 462.458 151.449C467.669 146.309 471.807 140.185 474.631 133.432C477.456 126.679 478.91 119.432 478.91 112.112C478.91 104.792 477.456 97.5455 474.631 90.7925C471.807 84.0399 467.669 77.9159 462.458 72.7759C454.654 65.1361 444.757 59.9863 434.022 57.9797C423.287 55.973 412.198 57.1999 402.161 61.5047C395.573 64.3553 389.598 68.4536 384.566 73.5739L384.565 73.5754C379.537 78.6478 375.56 84.6621 372.86 91.2739ZM373.595 132.607L373.595 132.606C370.902 126.103 369.515 119.132 369.512 112.093V112.093C369.517 98.8191 374.458 86.0218 383.375 76.1891C392.291 66.3563 404.546 60.1909 417.756 58.8917C430.966 57.5925 444.186 61.2523 454.848 69.1596C465.509 77.0668 472.849 88.6564 475.44 101.675C478.03 114.693 475.687 128.209 468.866 139.596C462.044 150.983 451.232 159.425 438.531 163.283C425.831 167.14 412.149 166.137 400.148 160.467C388.146 154.797 378.682 144.867 373.595 132.607Z" fill="#02B784" stroke="url(#paint22_linear_9_16977)"/>
<path d="M364.92 111.815L364.937 111.827L364.936 112.095C364.906 119.745 366.384 127.327 369.285 134.406C372.187 141.485 376.455 147.922 381.846 153.351L381.847 153.352C389.992 161.631 400.406 167.312 411.775 169.68C423.145 172.049 434.961 170.998 445.733 166.66L445.734 166.66C452.946 163.765 459.509 159.464 465.042 154.008C470.586 148.524 474.988 141.995 477.992 134.799C480.996 127.603 482.543 119.883 482.543 112.085C482.543 104.287 480.996 96.566 477.992 89.3698C474.988 82.1736 470.586 75.6448 465.042 70.1614L465.042 70.1612C456.789 61.9926 446.302 56.4515 434.904 54.237C423.505 52.0225 411.707 53.2339 400.996 57.7183C390.285 62.2026 381.143 69.7591 374.722 79.434C368.351 89.0352 364.943 100.296 364.92 111.815ZM365.619 112.593H365.601L365.601 112.093C365.608 97.8538 370.91 84.1264 380.477 73.5799C390.043 63.0333 403.19 56.4212 417.36 55.0294C431.531 53.6376 445.713 57.5655 457.148 66.0493C468.584 74.5331 476.456 86.9665 479.233 100.932C482.011 114.897 479.495 129.396 472.176 141.61C464.857 153.824 453.257 162.879 439.632 167.015C426.007 171.152 411.331 170.073 398.457 163.989C385.584 157.906 375.432 147.252 369.978 134.099L369.977 134.098C367.16 127.274 365.681 119.973 365.619 112.593Z" fill="#02B784" stroke="url(#paint23_linear_9_16977)"/>
<path d="M379.083 156.101L379.085 156.102C387.775 164.893 398.874 170.915 410.982 173.406C423.09 175.898 435.664 174.749 447.12 170.104L447.12 170.104C454.773 167.005 461.734 162.418 467.6 156.608L467.602 156.606C473.517 150.817 478.226 143.912 481.454 136.292C484.683 128.671 486.369 120.486 486.413 112.209C486.458 103.933 484.86 95.7296 481.713 88.0746C478.566 80.4197 473.932 73.4648 468.08 67.6126C462.227 61.7604 455.272 57.1271 447.617 53.9806C439.962 50.8342 431.759 49.2373 423.482 49.2822C415.206 49.3271 407.021 51.013 399.4 54.2423C391.779 57.4717 384.875 62.1802 379.086 68.0957L379.083 68.0986C373.327 73.8843 368.767 80.7481 365.664 88.2974C362.562 95.8467 360.978 103.933 361.004 112.095L361.004 112.098C360.979 120.261 362.563 128.348 365.665 135.898C368.767 143.449 373.327 150.313 379.083 156.101ZM361.668 112.097V112.097C361.668 96.8689 367.333 82.1854 377.559 70.9021C387.785 59.6187 401.843 52.5422 416.997 51.0488C432.152 49.5554 447.32 53.7518 459.552 62.822C471.784 71.8921 480.205 85.1876 483.178 100.123C486.151 115.057 483.462 130.564 475.636 143.627C467.809 156.69 455.404 166.375 440.833 170.798C426.262 175.221 410.566 174.067 396.798 167.56C383.031 161.052 372.176 149.657 366.344 135.59L366.344 135.59C363.26 128.141 361.671 120.159 361.668 112.097Z" fill="#02B784" stroke="url(#paint24_linear_9_16977)"/>
<path d="M470.176 159.146L470.176 159.145C477.153 152.223 482.505 143.837 485.845 134.593C489.185 125.349 490.429 115.479 489.488 105.696C488.547 95.9125 485.445 86.4604 480.405 78.0227C475.364 69.585 468.512 62.3725 460.344 56.9064C452.176 51.4403 442.895 47.8573 433.173 46.4162C423.451 44.9752 413.53 45.7122 404.127 48.5738C394.724 51.4355 386.075 56.3504 378.804 62.9633C371.533 69.5761 365.822 77.7216 362.084 86.8112C358.802 94.8338 357.13 103.423 357.161 112.091V112.093C357.149 125.191 361.017 138 368.28 148.901C375.542 159.802 385.871 168.307 397.963 173.342C410.056 178.376 423.369 179.715 436.221 177.188C449.074 174.661 460.889 168.383 470.176 159.146ZM357.794 112.592H357.77L357.77 112.092C357.779 95.8987 363.811 80.2874 374.691 68.294C385.572 56.3005 400.524 48.7823 416.64 47.2013C432.756 45.6202 448.885 50.0894 461.888 59.7397C474.892 69.39 483.843 83.5316 486.999 99.4146C490.155 115.298 487.291 131.787 478.964 145.675C470.638 159.564 457.443 169.86 441.947 174.56C426.451 179.261 409.76 178.03 395.121 171.108C380.481 164.185 368.94 152.066 362.74 137.106L362.74 137.105C359.532 129.326 357.853 121.004 357.794 112.592Z" fill="#02B784" stroke="url(#paint25_linear_9_16977)"/>
<path d="M353.29 112.093C353.34 129.42 359.834 146.11 371.507 158.915C383.181 171.721 399.2 179.727 416.449 181.376C433.698 183.025 450.944 178.2 464.833 167.839C478.722 157.478 488.261 142.322 491.594 125.318C494.928 108.314 491.818 90.6775 482.869 75.8393C473.921 61.001 459.773 50.0214 443.178 45.0358C426.583 40.0502 408.727 41.4151 393.082 48.8649C377.438 56.3148 365.123 69.317 358.534 85.3429C355.05 93.8297 353.268 102.919 353.29 112.093ZM353.81 112.094C353.813 94.9035 360.209 78.3285 371.755 65.5927C383.301 52.8569 399.171 44.8707 416.279 43.1872C433.387 41.5038 450.509 46.2434 464.316 56.4844C478.123 66.7254 487.628 81.7356 490.981 98.5957C494.335 115.456 491.298 132.961 482.46 147.706C473.623 162.451 459.618 173.382 443.168 178.373C426.718 183.364 409 182.059 393.459 174.711C377.918 167.363 365.666 154.497 359.085 138.616C355.602 130.208 353.809 121.195 353.81 112.094Z" fill="#02B784" stroke="url(#paint26_linear_9_16977)"/>
<path d="M358.101 145.699L358.101 145.698C349.758 129.563 347.714 110.901 352.367 93.3427C357.019 75.784 368.036 60.5832 383.274 50.6965C398.513 40.8098 416.884 36.9439 434.814 39.8506C452.745 42.7572 468.954 52.2286 480.288 66.423C491.623 80.6173 497.274 98.52 496.141 116.649C495.008 134.779 487.174 151.839 474.16 164.512C461.147 177.185 443.886 184.566 425.733 185.218C407.58 185.871 389.833 179.748 375.944 168.042L375.943 168.042C368.589 161.836 362.527 154.244 358.101 145.699ZM357.747 145.88C366.174 162.089 380.329 174.585 397.458 180.937C414.588 187.289 433.467 187.043 450.425 180.247C467.383 173.452 481.208 160.592 489.211 144.169C497.213 127.746 498.822 108.933 493.723 91.3899C488.625 73.8466 477.184 58.8265 461.625 49.2507C446.067 39.6748 427.503 36.2277 409.544 39.5797C391.585 42.9317 375.515 52.8431 364.458 67.3865C353.401 81.9299 348.149 100.066 349.722 118.267C350.562 127.908 353.288 137.291 357.747 145.88Z" fill="#02B784" stroke="url(#paint27_linear_9_16977)"/>
<path d="M367.468 165.567L367.467 165.567C354.202 151.752 346.549 133.498 345.996 114.354C345.444 95.2093 352.031 76.5437 364.476 61.9867C376.922 47.4297 394.337 38.0219 413.335 35.5927C432.332 33.1635 451.554 37.8867 467.263 48.8437C482.971 59.8006 494.043 76.2082 498.325 94.8755C502.607 113.543 499.793 133.136 490.431 149.844C481.069 166.551 465.827 179.18 447.67 185.274C429.513 191.367 409.739 190.49 392.193 182.813L392.193 182.813C382.9 178.74 374.499 172.88 367.468 165.567ZM367.296 165.731C380.637 179.572 398.649 187.956 417.83 189.253C437.01 190.55 455.987 184.667 471.07 172.748C486.153 160.83 496.264 143.727 499.437 124.767C502.61 105.806 498.617 86.3438 488.236 70.164C477.854 53.9841 461.826 42.2437 443.269 37.226C424.711 32.2083 404.951 34.272 387.83 43.0158C370.71 51.7595 357.454 66.5583 350.639 84.534C343.825 102.51 343.94 122.377 350.962 140.273C354.684 149.748 360.234 158.398 367.296 165.731Z" fill="#02B784" stroke="url(#paint28_linear_9_16977)"/>
<path d="M353.354 153.642L353.354 153.641C343.044 136.332 339.54 115.806 343.523 96.0555C347.507 76.3054 358.694 58.743 374.908 46.7834C391.123 34.8238 411.206 29.322 431.251 31.3481C451.297 33.3742 469.873 42.7832 483.366 57.7454C486.738 61.4847 489.733 65.504 492.327 69.7443C484.855 57.485 474.208 47.3364 461.381 40.4557C443.623 30.9289 422.956 28.3473 403.399 33.2128C383.843 38.0783 366.795 50.0431 355.57 66.7806C344.346 83.518 339.748 103.832 342.67 123.771C344.222 134.338 347.84 144.495 353.317 153.663C358.002 161.499 363.931 168.418 370.807 174.189C363.897 168.365 357.995 161.423 353.354 153.642Z" fill="#02B784" stroke="url(#paint29_linear_9_16977)"/>
<mask id="path-32-inside-2_9_16977" fill="white">
<path d="M344.16 145.091C352.367 164.658 367.558 180.474 386.778 189.463C405.999 198.452 427.876 199.971 448.155 193.725C468.434 187.479 485.665 173.914 496.497 155.669C507.329 137.423 510.989 115.801 506.763 95.0068C502.538 74.2129 490.73 55.7336 473.636 43.1624C456.542 30.5913 435.384 24.827 414.276 26.9904C393.167 29.1539 373.618 39.0905 359.43 54.8679C345.241 70.6453 337.427 91.1356 337.508 112.354C337.556 123.597 339.816 134.721 344.16 145.091ZM344.912 144.776C336.806 125.381 336.204 103.664 343.221 83.8491C350.239 64.0342 364.375 47.5375 382.881 37.5671C401.387 27.5968 422.94 24.8657 443.348 29.9047C463.756 34.9438 481.561 47.3929 493.299 64.831C505.038 82.2692 509.871 103.45 506.859 124.254C503.847 145.058 493.206 163.998 477.004 177.391C460.802 190.785 440.198 197.673 419.198 196.718C398.199 195.762 378.306 187.031 363.387 172.222C355.485 164.376 349.204 155.051 344.902 144.78L344.912 144.776Z"/>
</mask>
<path d="M344.16 145.091C352.367 164.658 367.558 180.474 386.778 189.463C405.999 198.452 427.876 199.971 448.155 193.725C468.434 187.479 485.665 173.914 496.497 155.669C507.329 137.423 510.989 115.801 506.763 95.0068C502.538 74.2129 490.73 55.7336 473.636 43.1624C456.542 30.5913 435.384 24.827 414.276 26.9904C393.167 29.1539 373.618 39.0905 359.43 54.8679C345.241 70.6453 337.427 91.1356 337.508 112.354C337.556 123.597 339.816 134.721 344.16 145.091ZM344.912 144.776C336.806 125.381 336.204 103.664 343.221 83.8491C350.239 64.0342 364.375 47.5375 382.881 37.5671C401.387 27.5968 422.94 24.8657 443.348 29.9047C463.756 34.9438 481.561 47.3929 493.299 64.831C505.038 82.2692 509.871 103.45 506.859 124.254C503.847 145.058 493.206 163.998 477.004 177.391C460.802 190.785 440.198 197.673 419.198 196.718C398.199 195.762 378.306 187.031 363.387 172.222C355.485 164.376 349.204 155.051 344.902 144.78L344.912 144.776Z" fill="#02B784"/>
<path d="M337.508 112.354L336.508 112.359L336.508 112.358L337.508 112.354ZM344.912 144.776L345.835 144.39L346.22 145.313L345.298 145.699L344.912 144.776ZM363.387 172.222L362.683 172.931L362.683 172.931L363.387 172.222ZM344.902 144.78L343.98 145.167L343.593 144.244L344.516 143.858L344.902 144.78ZM345.082 144.704C353.193 164.043 368.206 179.674 387.202 188.557L386.355 190.369C366.909 181.275 351.541 165.274 343.238 145.478L345.082 144.704ZM387.202 188.557C406.198 197.441 427.819 198.942 447.861 192.769L448.449 194.681C427.933 201 405.801 199.463 386.355 190.369L387.202 188.557ZM447.861 192.769C467.902 186.596 484.931 173.19 495.637 155.158L497.357 156.179C486.398 174.638 468.965 188.361 448.449 194.681L447.861 192.769ZM495.637 155.158C506.343 137.126 509.959 115.757 505.783 95.206L507.743 94.8077C512.018 115.845 508.316 137.72 497.357 156.179L495.637 155.158ZM505.783 95.206C501.608 74.6553 489.938 56.3921 473.044 43.968L474.229 42.3568C491.523 55.075 503.469 73.7705 507.743 94.8077L505.783 95.206ZM473.044 43.968C456.15 31.544 435.239 25.8471 414.377 27.9852L414.174 25.9957C435.529 23.8069 456.935 29.6386 474.229 42.3568L473.044 43.968ZM414.377 27.9852C393.516 30.1234 374.196 39.9437 360.173 55.5366L358.686 54.1992C373.04 38.2373 392.818 28.1844 414.174 25.9957L414.377 27.9852ZM360.173 55.5366C346.151 71.1294 338.428 91.38 338.508 112.351L336.508 112.358C336.426 90.8912 344.331 70.1612 358.686 54.1992L360.173 55.5366ZM338.508 112.35C338.555 123.462 340.789 134.456 345.082 144.705L343.238 145.477C338.843 134.986 336.557 123.733 336.508 112.359L338.508 112.35ZM343.99 145.162C335.788 125.537 335.178 103.564 342.279 83.5153L344.164 84.183C337.229 103.764 337.825 125.224 345.835 144.39L343.99 145.162ZM342.279 83.5153C349.379 63.4664 363.683 46.7748 382.407 36.6868L383.356 38.4475C365.068 48.3001 351.099 64.602 344.164 84.183L342.279 83.5153ZM382.407 36.6868C401.132 26.5987 422.939 23.8353 443.588 28.9339L443.109 30.8756C422.941 25.896 401.643 28.5949 383.356 38.4475L382.407 36.6868ZM443.588 28.9339C464.237 34.0325 482.252 46.6285 494.129 64.2726L492.47 65.3894C480.87 48.1572 463.276 35.8551 443.109 30.8756L443.588 28.9339ZM494.129 64.2726C506.006 81.9167 510.896 103.347 507.849 124.397L505.869 124.111C508.846 103.552 504.069 82.6217 492.47 65.3894L494.129 64.2726ZM507.849 124.397C504.801 145.447 494.034 164.611 477.641 178.162L476.366 176.621C492.377 163.386 502.893 144.669 505.869 124.111L507.849 124.397ZM477.641 178.162C461.248 191.714 440.4 198.684 419.153 197.717L419.244 195.719C439.995 196.663 460.356 189.856 476.366 176.621L477.641 178.162ZM419.153 197.717C397.906 196.75 377.778 187.915 362.683 172.931L364.092 171.512C378.834 186.146 398.493 194.775 419.244 195.719L419.153 197.717ZM362.683 172.931C354.688 164.993 348.333 155.559 343.98 145.167L345.825 144.394C350.076 154.544 356.283 163.758 364.092 171.512L362.683 172.931ZM344.516 143.858L344.526 143.854L345.298 145.699L345.288 145.703L344.516 143.858Z" fill="url(#paint30_linear_9_16977)" mask="url(#path-32-inside-2_9_16977)"/>
<path d="M423.116 201.204C373.904 201.204 334.009 161.309 334.009 112.097C334.009 62.8846 373.904 22.9902 423.116 22.9902C472.328 22.9902 512.223 62.8846 512.223 112.097C512.223 161.309 472.328 201.204 423.116 201.204Z" stroke="url(#paint31_linear_9_16977)" stroke-miterlimit="10"/>
</g>
<path d="M217.352 235.876C209.706 228.26 205.397 217.92 205.371 207.128C205.366 199.08 207.752 191.211 212.226 184.521C216.7 177.831 223.06 172.621 230.5 169.551C237.94 166.481 246.124 165.69 254.014 167.278C261.903 168.867 269.144 172.763 274.816 178.473C280.467 184.155 284.311 191.381 285.865 199.242C287.419 207.103 286.614 215.248 283.55 222.653C280.486 230.057 275.301 236.39 268.647 240.855C261.993 245.32 254.166 247.717 246.153 247.744H246.152C235.358 247.762 224.999 243.493 217.352 235.876ZM205.279 207.126L205.456 211.145C205.555 211.993 205.679 212.829 205.805 213.675C205.877 214.16 205.949 214.648 206.017 215.144C206.106 215.787 206.256 216.423 206.426 217.075C206.476 217.268 206.529 217.465 206.582 217.663C206.705 218.123 206.83 218.592 206.938 219.06C207.135 219.915 207.432 220.716 207.742 221.551C207.9 221.977 208.062 222.412 208.215 222.867C210.756 229.516 214.886 235.443 220.243 240.13C225.603 244.82 232.029 248.126 238.96 249.762C245.892 251.397 253.118 251.311 260.009 249.512C266.899 247.712 273.244 244.254 278.491 239.439C282.935 235.342 286.479 230.366 288.901 224.828C291.323 219.246 292.573 213.227 292.574 207.142L292.316 202.582C292.175 201.5 291.995 200.384 291.814 199.268C291.75 198.867 291.685 198.466 291.622 198.066C291.468 197.093 291.188 196.165 290.897 195.201C290.746 194.7 290.592 194.19 290.451 193.658C290.189 192.668 289.802 191.743 289.401 190.785C289.215 190.34 289.026 189.888 288.845 189.419C286.416 183.891 282.872 178.925 278.433 174.833C274.036 170.832 268.883 167.752 263.278 165.774C252.564 162.097 240.842 162.71 230.57 167.486C220.301 172.26 212.279 180.824 208.185 191.381C208.026 191.857 207.864 192.32 207.703 192.779C207.418 193.594 207.138 194.394 206.893 195.218C206.577 196.281 206.348 197.373 206.115 198.481C206.068 198.703 206.021 198.925 205.974 199.148C205.743 200.232 205.619 201.334 205.492 202.464C205.468 202.675 205.444 202.887 205.419 203.101L205.279 207.126Z" fill="#02B784" stroke="#B5D43B"/>
<path d="M199.899 207.122L199.899 207.132C199.837 213.221 200.973 219.263 203.244 224.914L203.244 224.915C204.378 227.749 205.754 230.48 207.358 233.077C208.99 235.674 210.871 238.106 212.974 240.339L212.977 240.343C217.327 245.048 222.565 248.846 228.389 251.519C234.212 254.192 240.507 255.687 246.911 255.917C253.315 256.147 259.701 255.109 265.701 252.861C271.702 250.614 277.198 247.202 281.875 242.822C284.279 240.539 286.458 238.028 288.379 235.325L288.38 235.323C290.322 232.615 291.961 229.701 293.268 226.636L293.269 226.633C295.941 220.482 297.32 213.847 297.32 207.141C297.32 200.436 295.941 193.801 293.269 187.651C290.592 181.547 286.715 176.044 281.868 171.469C277.187 167.101 271.69 163.7 265.692 161.46C259.694 159.22 253.313 158.185 246.914 158.414C240.515 158.644 234.225 160.133 228.402 162.798C222.58 165.462 217.341 169.249 212.984 173.941L212.981 173.944C210.879 176.173 209 178.603 207.372 181.199C205.766 183.796 204.387 186.527 203.251 189.361L203.251 189.361C200.98 195.004 199.841 201.039 199.899 207.122ZM200.296 207.128V207.127C200.276 195.752 204.488 184.776 212.112 176.333C219.737 167.891 230.228 162.587 241.547 161.451C252.866 160.316 264.202 163.431 273.351 170.19C282.501 176.95 288.809 186.871 291.049 198.023C293.289 209.176 291.301 220.763 285.471 230.532C279.642 240.3 270.387 247.551 259.508 250.874C248.629 254.197 236.903 253.355 226.61 248.512C216.317 243.668 208.193 235.17 203.819 224.669L203.819 224.669C201.505 219.109 200.308 213.149 200.296 207.128Z" fill="#02B784" stroke="#B5D43B"/>
<path d="M198.313 226.955L198.314 226.959C200.829 233.308 204.541 239.116 209.246 244.067L209.248 244.068C215.35 250.557 222.972 255.425 231.425 258.233C239.879 261.04 248.899 261.699 257.67 260.15C266.442 258.601 274.691 254.892 281.671 249.358C288.652 243.825 294.145 236.641 297.655 228.454L297.656 228.453C300.555 221.718 302.051 214.462 302.051 207.129C302.051 199.796 300.555 192.541 297.656 185.806C294.753 179.118 290.539 173.08 285.265 168.047C280.135 163.193 274.098 159.398 267.5 156.879C260.901 154.36 253.871 153.166 246.811 153.365C239.751 153.565 232.799 155.154 226.353 158.043C219.908 160.931 214.095 165.061 209.247 170.198L209.245 170.2C206.892 172.67 204.782 175.361 202.945 178.236C201.136 181.115 199.586 184.149 198.313 187.303L198.313 187.303C195.766 193.597 194.483 200.332 194.537 207.121L194.537 207.129C194.483 213.922 195.766 220.658 198.313 226.955ZM195.194 207.126C195.181 194.488 199.868 182.296 208.344 172.922C216.82 163.548 228.48 157.661 241.055 156.407C253.631 155.152 266.224 158.62 276.385 166.135C286.546 173.649 293.549 184.675 296.032 197.067C298.515 209.458 296.301 222.331 289.82 233.181C283.339 244.03 273.054 252.082 260.966 255.77C248.878 259.457 235.851 258.518 224.417 253.133C212.983 247.749 203.961 238.304 199.104 226.637C196.531 220.453 195.202 213.823 195.194 207.126Z" fill="#02B784" stroke="#B5D43B"/>
<path d="M189.194 207.125L189.194 207.132C189.147 214.622 190.576 222.048 193.399 228.986L193.401 228.989C196.193 235.975 200.308 242.357 205.52 247.783L205.521 247.785C212.233 254.82 220.587 260.079 229.833 263.09C239.079 266.1 248.927 266.768 258.495 265.032C268.063 263.297 277.05 259.213 284.649 253.147C292.249 247.082 298.224 239.224 302.037 230.279L302.037 230.279C305.159 222.961 306.768 215.088 306.768 207.133C306.768 199.177 305.159 191.304 302.038 183.987C298.907 176.709 294.356 170.128 288.65 164.631C280.189 156.55 269.514 151.169 257.985 149.175C246.456 147.181 234.594 148.663 223.91 153.433C220.447 154.991 217.146 156.886 214.054 159.09C210.989 161.286 208.128 163.752 205.504 166.46C200.295 171.887 196.178 178.265 193.378 185.247L193.377 185.249C190.559 192.195 189.138 199.629 189.194 207.125ZM190.044 207.13L190.043 206.629H190.068C190.182 192.91 195.331 179.704 204.545 169.523C213.871 159.22 226.696 152.752 240.526 151.38C254.356 150.007 268.202 153.827 279.372 162.097C290.542 170.367 298.237 182.495 300.96 196.123C303.684 209.751 301.242 223.906 294.109 235.833C286.976 247.761 275.662 256.609 262.367 260.658C249.072 264.706 234.746 263.666 222.176 257.738C209.605 251.811 199.689 241.42 194.355 228.587C191.525 221.786 190.06 214.496 190.044 207.13Z" fill="#02B784" stroke="#B5D43B"/>
<path d="M183.877 207.624C183.979 224.119 190.47 239.94 201.997 251.757C213.641 263.693 229.497 270.593 246.167 270.978L246.168 270.978C258.961 271.3 271.554 267.765 282.311 260.833C293.068 253.901 301.49 243.893 306.483 232.11L306.483 232.11C309.832 224.207 311.559 215.711 311.559 207.127C311.559 198.544 309.833 190.048 306.483 182.145C301.473 170.378 293.047 160.384 282.295 153.457C271.544 146.531 258.961 142.989 246.175 143.291C229.519 143.71 213.686 150.618 202.05 162.542C190.414 174.466 183.895 190.463 183.883 207.124L183.883 207.624H183.877ZM184.912 207.124V207.124C184.91 191.954 190.549 177.325 200.734 166.082C210.919 154.84 224.921 147.786 240.017 146.294C255.113 144.802 270.225 148.977 282.414 158.009C294.603 167.04 302.997 180.281 305.965 195.158C308.933 210.035 306.262 225.484 298.471 238.501C290.681 251.518 278.328 261.172 263.814 265.587C249.301 270.001 233.665 268.861 219.945 262.386C206.226 255.912 195.405 244.567 189.587 230.558L189.586 230.557C186.506 223.129 184.917 215.166 184.912 207.124Z" fill="#02B784" stroke="#B5D43B"/>
<path d="M310.913 233.959L310.913 233.958C316.31 221.185 317.729 207.08 314.983 193.488C312.238 179.896 305.457 167.448 295.525 157.77C285.816 148.327 273.54 141.954 260.229 139.448C246.919 136.942 233.165 138.414 220.687 143.68C208.208 148.946 197.559 157.774 190.068 169.058C182.578 180.343 178.58 193.585 178.573 207.129C178.559 223.031 184.047 238.448 194.108 250.764C204.168 263.079 218.18 271.534 233.765 274.694C249.35 277.854 265.548 275.523 279.611 268.098C293.673 260.673 304.733 248.611 310.913 233.959ZM179.727 207.129V207.129C179.724 190.665 185.845 174.789 196.898 162.588C207.951 150.386 223.147 142.732 239.53 141.113C255.914 139.494 272.314 144.026 285.542 153.828C298.769 163.629 307.879 178.001 311.098 194.146C314.318 210.292 311.418 227.058 302.962 241.183C294.505 255.309 281.098 265.785 265.346 270.574C249.595 275.363 232.625 274.123 217.738 267.095C202.85 260.066 191.108 247.752 184.796 232.546L184.796 232.546C181.459 224.487 179.737 215.852 179.727 207.129Z" fill="#02B784" stroke="#B5D43B"/>
<path d="M178.692 179.178C175.22 187.682 173.387 196.762 173.287 205.94L173.313 205.914L173.306 207.127C173.252 216.715 175.089 226.22 178.713 235.097C182.338 243.974 187.678 252.049 194.427 258.859L194.429 258.861C201.178 265.751 209.199 271.265 218.048 275.099C231.518 280.876 246.401 282.521 260.808 279.824C275.215 277.128 288.496 270.212 298.966 259.954C305.961 253.055 311.516 244.834 315.307 235.769C319.098 226.704 321.051 216.976 321.051 207.15C321.051 197.324 319.098 187.597 315.307 178.532C311.516 169.467 305.961 161.246 298.966 154.347C288.49 144.091 275.204 137.178 260.794 134.485C246.384 131.791 231.498 133.438 218.025 139.217C209.181 143.043 201.161 148.544 194.407 155.418L194.405 155.419C187.656 162.228 182.317 170.302 178.692 179.178ZM179.991 234.533L179.99 234.533C176.392 225.843 174.539 216.53 174.536 207.125V207.124C174.542 189.389 181.144 172.291 193.058 159.153C204.971 146.015 221.345 137.778 238.995 136.042C256.644 134.306 274.309 139.196 288.554 149.761C302.798 160.326 312.605 175.811 316.067 193.204C319.528 210.598 316.398 228.658 307.283 243.872C298.169 259.086 283.723 270.366 266.753 275.52C249.784 280.674 231.504 279.333 215.468 271.758C199.432 264.183 186.787 250.915 179.991 234.533Z" fill="#02B784" stroke="#B5D43B"/>
<path d="M168.044 206.843L168.067 206.859L168.066 207.127C168.025 217.396 170.009 227.571 173.903 237.073C177.797 246.574 183.526 255.215 190.762 262.501L190.763 262.503C201.695 273.614 215.672 281.239 230.932 284.418C246.191 287.596 262.05 286.185 276.509 280.363L276.51 280.363C286.189 276.478 294.999 270.705 302.426 263.381C309.867 256.022 315.774 247.259 319.806 237.601C323.838 227.943 325.914 217.58 325.914 207.114C325.914 196.648 323.838 186.286 319.806 176.627C315.774 166.969 309.866 158.206 302.425 150.846L302.425 150.846C291.349 139.883 277.273 132.446 261.974 129.473C246.676 126.501 230.84 128.127 216.464 134.146C202.088 140.165 189.818 150.307 181.2 163.292C172.632 176.204 168.057 191.351 168.044 206.843ZM169.319 207.625H169.295L169.295 207.125C169.305 188.097 176.391 169.753 189.174 155.659C201.958 141.566 219.526 132.73 238.463 130.87C257.4 129.01 276.351 134.259 291.633 145.596C306.914 156.933 317.434 173.548 321.145 192.211C324.857 210.873 321.495 230.249 311.715 246.57C301.934 262.892 286.433 274.993 268.225 280.52C250.018 286.047 230.406 284.606 213.202 276.476C195.999 268.346 182.433 254.109 175.144 236.533L175.144 236.532C171.357 227.361 169.38 217.545 169.319 207.625Z" fill="#02B784" stroke="#B5D43B"/>
<path d="M278.556 285.438C263.091 291.709 246.115 293.261 229.77 289.897C213.424 286.533 198.441 278.404 186.709 266.535L278.556 285.438ZM278.556 285.438C288.887 281.255 298.285 275.062 306.204 267.219L278.556 285.438ZM187.063 266.183L187.064 266.184C198.727 277.982 213.622 286.063 229.87 289.407C246.119 292.751 262.994 291.209 278.368 284.975L278.368 284.975C288.638 280.817 297.98 274.661 305.852 266.864L305.854 266.862C313.792 259.093 320.111 249.827 324.444 239.6C328.777 229.373 331.039 218.388 331.098 207.281C331.158 196.174 329.014 185.165 324.791 174.893C320.568 164.62 314.349 155.286 306.495 147.433C298.641 139.579 289.307 133.361 279.034 129.139C268.761 124.916 257.752 122.773 246.645 122.833C235.539 122.894 224.554 125.156 214.327 129.49C204.1 133.824 194.835 140.142 187.066 148.081L187.063 148.084C179.338 155.848 173.218 165.06 169.055 175.191C164.892 185.322 162.766 196.175 162.8 207.128V207.131C162.767 218.085 164.892 228.939 169.056 239.071C173.219 249.204 179.338 258.416 187.063 266.183ZM170.279 238.529L170.279 238.529C166.156 228.574 164.033 217.905 164.029 207.13C164.03 186.777 171.6 167.152 185.267 152.072C198.935 136.992 217.723 127.534 237.977 125.538C258.232 123.542 278.504 129.15 294.853 141.273C311.201 153.395 322.456 171.165 326.43 191.126C330.403 211.087 326.81 231.812 316.349 249.27C305.889 266.729 289.309 279.673 269.834 285.585C250.36 291.497 229.382 289.954 210.981 281.257C192.581 272.56 178.073 257.33 170.279 238.529Z" fill="#02B784" stroke="#B5D43B"/>
<path d="M309.302 270.262L309.303 270.262C318.665 260.973 325.846 249.72 330.327 237.317C334.809 224.913 336.479 211.669 335.216 198.541C333.954 185.414 329.79 172.73 323.027 161.408C316.264 150.086 307.07 140.408 296.109 133.073C285.149 125.739 272.695 120.931 259.65 118.997C246.604 117.064 233.292 118.053 220.675 121.892C208.058 125.732 196.452 132.327 186.695 141.201C176.939 150.074 169.275 161.004 164.259 173.201C159.856 183.966 157.612 195.492 157.654 207.123V207.125C157.637 224.701 162.828 241.888 172.573 256.516C182.317 271.143 196.178 282.555 212.404 289.311C228.63 296.067 246.494 297.863 263.74 294.472C280.986 291.082 296.841 282.657 309.302 270.262ZM158.839 207.624H158.808L158.809 207.124C158.821 185.478 166.883 164.611 181.427 148.58C195.971 132.548 215.957 122.499 237.499 120.385C259.042 118.272 280.6 124.246 297.982 137.145C315.364 150.045 327.328 168.947 331.547 190.178C335.765 211.409 331.937 233.449 320.807 252.014C309.677 270.579 292.04 284.341 271.327 290.624C250.613 296.907 228.303 295.262 208.735 286.009C189.167 276.756 173.739 260.556 165.452 240.559L165.452 240.559C161.142 230.109 158.897 218.925 158.839 207.624Z" fill="#02B784" stroke="#B5D43B"/>
<path d="M152.47 207.125C152.538 230.374 161.25 252.766 176.913 269.948C192.575 287.129 214.068 297.871 237.212 300.084C260.355 302.297 283.495 295.823 302.129 281.921C320.764 268.02 333.563 247.684 338.035 224.869C342.508 202.055 338.335 178.392 326.329 158.483C314.322 138.575 295.34 123.843 273.075 117.154C250.809 110.465 226.851 112.296 205.86 122.291C184.87 132.287 168.347 149.732 159.506 171.235C154.831 182.621 152.441 194.816 152.47 207.125ZM153.506 207.126C153.509 184.146 162.061 161.988 177.496 144.962C192.931 127.936 214.147 117.26 237.017 115.009C259.887 112.759 282.777 119.095 301.235 132.786C319.692 146.476 332.398 166.542 336.881 189.081C341.365 211.621 337.304 235.022 325.491 254.733C313.677 274.445 294.954 289.058 272.963 295.731C250.972 302.403 227.286 300.658 206.51 290.835C185.735 281.012 169.356 263.812 160.558 242.582C155.902 231.341 153.505 219.293 153.506 207.126Z" fill="#02B784" stroke="#B5D43B"/>
<path d="M159.233 252.055L159.233 252.055C148.078 230.482 145.345 205.533 151.566 182.057C157.786 158.582 172.515 138.259 192.888 125.04C213.262 111.822 237.823 106.654 261.795 110.54C285.768 114.426 307.439 127.089 322.593 146.066C337.747 165.044 345.302 188.979 343.787 213.217C342.273 237.456 331.798 260.264 314.4 277.208C297.002 294.152 273.924 304.019 249.654 304.892C225.384 305.764 201.657 297.579 183.087 281.928L183.087 281.927C173.254 273.63 165.149 263.48 159.233 252.055ZM158.457 252.455C169.763 274.201 188.753 290.965 211.733 299.486C234.714 308.008 260.042 307.678 282.793 298.561C305.544 289.444 324.091 272.192 334.827 250.158C345.563 228.125 347.721 202.887 340.881 179.351C334.041 155.815 318.692 135.664 297.819 122.817C276.946 109.97 252.041 105.346 227.948 109.843C203.854 114.34 182.294 127.637 167.461 147.148C152.627 166.659 145.58 190.99 147.691 215.409C148.817 228.344 152.475 240.931 158.457 252.455Z" fill="#02B784" stroke="#B5D43B"/>
<path d="M171.75 278.624L171.749 278.624C154.013 260.153 143.78 235.745 143.041 210.148C142.302 184.55 151.109 159.593 167.75 140.129C184.391 120.665 207.677 108.086 233.078 104.838C258.48 101.59 284.181 107.905 305.184 122.555C326.188 137.206 340.992 159.144 346.717 184.104C352.443 209.064 348.681 235.261 336.162 257.601C323.644 279.941 303.265 296.826 278.988 304.974C254.71 313.122 228.27 311.949 204.809 301.684L204.809 301.684C192.385 296.238 181.152 288.403 171.75 278.624ZM171.275 279.079C189.172 297.646 213.335 308.894 239.065 310.634C264.795 312.374 290.252 304.482 310.485 288.493C330.719 272.504 344.283 249.562 348.539 224.127C352.795 198.692 347.439 172.583 333.513 150.878C319.587 129.174 298.085 113.424 273.191 106.693C248.296 99.9619 221.788 102.73 198.822 114.46C175.855 126.189 158.072 146.042 148.931 170.155C139.79 194.269 139.944 220.921 149.363 244.928C154.357 257.639 161.802 269.243 171.275 279.079Z" fill="#02B784" stroke="#B5D43B"/>
<path d="M152.87 262.683L152.869 262.683C139.082 239.536 134.397 212.089 139.724 185.679C145.051 159.27 160.01 135.785 181.692 119.793C203.374 103.8 230.228 96.4436 257.033 99.1529C283.838 101.862 308.678 114.444 326.721 134.451C344.764 154.459 354.721 180.462 354.656 207.403C354.591 234.345 344.508 260.299 326.368 280.219C308.228 300.139 283.328 312.6 256.51 315.179C229.692 317.759 202.874 310.272 181.27 294.175L181.269 294.175C169.83 285.641 160.181 274.94 152.87 262.683ZM152.528 262.886C166.4 286.087 188.405 303.301 214.264 311.178C240.123 319.056 267.987 317.034 292.439 305.508C316.89 293.981 336.181 273.772 346.559 248.811C356.938 223.851 357.662 195.923 348.591 170.458C339.521 144.993 321.304 123.811 297.483 111.032C273.662 98.2533 245.94 94.7903 219.707 101.317C193.475 107.843 170.607 123.893 155.551 146.344C140.495 168.795 134.327 196.043 138.246 222.79C140.329 236.963 145.182 250.588 152.528 262.886Z" fill="#02B784" stroke="#B5D43B"/>
<path d="M140.765 250.627C130.044 224.654 129.298 195.628 138.682 169.13C148.122 142.475 167.138 120.284 192.032 106.872C216.927 93.46 245.919 89.786 273.372 96.5645C300.825 103.343 324.775 120.089 340.565 143.547C352.319 161.008 358.927 181.259 359.865 202.014C359.605 196.109 358.884 190.2 357.693 184.34C352.059 156.612 336.314 131.971 313.52 115.209C290.726 98.4458 262.513 90.7595 234.366 93.6443C206.22 96.5291 180.152 109.779 161.233 130.817C142.313 151.855 131.894 179.178 132.002 207.472C132.066 222.463 135.08 237.296 140.872 251.124C150.726 274.619 168.132 294.059 190.213 306.447C181.355 301.465 173.136 295.281 165.809 288.008L166.161 287.653L165.809 288.008C155.18 277.453 146.73 264.911 140.943 251.094L140.75 250.633L140.765 250.627Z" fill="#02B784" stroke="#B5D43B"/>
<path d="M246.157 326.47C180.248 326.47 126.818 273.04 126.818 207.13C126.818 141.221 180.248 87.791 246.157 87.791C312.066 87.791 365.496 141.221 365.496 207.13C365.496 273.04 312.066 326.47 246.157 326.47Z" stroke="#B5D43B" stroke-miterlimit="10"/>
<g opacity="0.5">
<path d="M121.352 449.876C113.706 442.26 109.397 431.92 109.371 421.128C109.366 413.08 111.752 405.211 116.226 398.521C120.7 391.831 127.06 386.621 134.5 383.551C141.94 380.481 150.124 379.69 158.014 381.278C165.903 382.867 173.144 386.763 178.816 392.473C184.467 398.155 188.311 405.381 189.865 413.242C191.419 421.103 190.614 429.248 187.55 436.653C184.486 444.057 179.301 450.39 172.647 454.855C165.993 459.32 158.166 461.717 150.153 461.744H150.152C139.358 461.762 128.999 457.493 121.352 449.876ZM109.279 421.126L109.456 425.145C109.555 425.993 109.679 426.829 109.805 427.675C109.877 428.16 109.949 428.648 110.017 429.144C110.106 429.787 110.256 430.423 110.426 431.075C110.476 431.268 110.529 431.465 110.582 431.663C110.705 432.123 110.83 432.592 110.938 433.06C111.135 433.915 111.432 434.716 111.742 435.551C111.9 435.977 112.062 436.412 112.215 436.867C114.756 443.516 118.886 449.443 124.243 454.13C129.603 458.82 136.029 462.126 142.96 463.762C149.892 465.397 157.118 465.311 164.009 463.512C170.899 461.712 177.244 458.254 182.491 453.439C186.935 449.342 190.479 444.366 192.901 438.828C195.323 433.246 196.573 427.227 196.574 421.142L196.316 416.582C196.175 415.5 195.995 414.384 195.814 413.268C195.75 412.867 195.685 412.466 195.622 412.066C195.468 411.093 195.188 410.165 194.897 409.201C194.746 408.7 194.592 408.19 194.451 407.658C194.189 406.668 193.802 405.743 193.401 404.785C193.215 404.34 193.026 403.888 192.845 403.419C190.416 397.891 186.872 392.925 182.433 388.833C178.036 384.832 172.883 381.752 167.278 379.774C156.564 376.097 144.842 376.71 134.57 381.486C124.301 386.26 116.279 394.824 112.185 405.381C112.026 405.857 111.864 406.32 111.703 406.779C111.418 407.594 111.138 408.394 110.893 409.218C110.577 410.281 110.348 411.373 110.115 412.481C110.068 412.703 110.021 412.925 109.974 413.148C109.743 414.232 109.619 415.334 109.492 416.464C109.468 416.675 109.444 416.887 109.419 417.101L109.279 421.126Z" fill="#02B784" stroke="#B5D43B"/>
<path d="M103.899 421.122L103.899 421.132C103.837 427.221 104.973 433.263 107.244 438.914L107.244 438.915C108.378 441.749 109.754 444.48 111.358 447.077C112.99 449.674 114.871 452.106 116.974 454.339L116.977 454.343C121.327 459.048 126.565 462.846 132.389 465.519C138.212 468.192 144.507 469.687 150.911 469.917C157.315 470.147 163.701 469.109 169.701 466.861C175.702 464.614 181.198 461.202 185.875 456.822C188.279 454.539 190.458 452.028 192.379 449.325L192.38 449.323C194.322 446.615 195.961 443.701 197.268 440.636L197.269 440.633C199.941 434.482 201.32 427.847 201.32 421.141C201.32 414.436 199.941 407.801 197.269 401.651C194.592 395.547 190.715 390.044 185.868 385.469C181.187 381.101 175.69 377.7 169.692 375.46C163.694 373.22 157.313 372.185 150.914 372.414C144.515 372.644 138.225 374.133 132.402 376.798C126.58 379.462 121.341 383.249 116.984 387.941L116.981 387.944C114.879 390.173 113 392.603 111.372 395.199C109.766 397.796 108.387 400.527 107.251 403.361L107.251 403.361C104.98 409.004 103.841 415.039 103.899 421.122ZM104.296 421.128V421.127C104.276 409.752 108.488 398.776 116.112 390.333C123.737 381.891 134.228 376.587 145.547 375.451C156.866 374.316 168.202 377.431 177.351 384.19C186.501 390.95 192.809 400.871 195.049 412.023C197.289 423.176 195.301 434.763 189.471 444.532C183.642 454.3 174.387 461.551 163.508 464.874C152.629 468.197 140.903 467.355 130.61 462.512C120.317 457.668 112.193 449.17 107.819 438.669L107.819 438.669C105.505 433.109 104.308 427.149 104.296 421.128Z" fill="#02B784" stroke="#B5D43B"/>
<path d="M102.313 440.955L102.314 440.959C104.829 447.308 108.541 453.116 113.246 458.067L113.248 458.068C119.35 464.557 126.972 469.425 135.425 472.233C143.879 475.04 152.899 475.699 161.67 474.15C170.442 472.601 178.691 468.892 185.671 463.358C192.652 457.825 198.145 450.641 201.655 442.454L201.656 442.453C204.555 435.718 206.051 428.462 206.051 421.129C206.051 413.796 204.555 406.541 201.656 399.806C198.753 393.118 194.539 387.08 189.265 382.047C184.135 377.193 178.098 373.398 171.5 370.879C164.901 368.36 157.871 367.166 150.811 367.365C143.751 367.565 136.799 369.154 130.353 372.043C123.908 374.931 118.095 379.061 113.247 384.198L113.245 384.2C110.892 386.67 108.782 389.361 106.945 392.236C105.136 395.115 103.586 398.149 102.313 401.303L102.313 401.303C99.7663 407.597 98.4835 414.332 98.5375 421.121L98.5374 421.129C98.4835 427.922 99.7663 434.658 102.313 440.955ZM99.1945 421.126C99.1807 408.488 103.868 396.296 112.344 386.922C120.82 377.548 132.48 371.661 145.055 370.407C157.631 369.152 170.224 372.62 180.385 380.135C190.546 387.649 197.549 398.675 200.032 411.067C202.515 423.458 200.301 436.331 193.82 447.181C187.339 458.03 177.054 466.082 164.966 469.77C152.878 473.457 139.851 472.518 128.417 467.133C116.983 461.749 107.961 452.304 103.104 440.637C100.531 434.453 99.2022 427.823 99.1945 421.126Z" fill="#02B784" stroke="#B5D43B"/>
<path d="M93.1936 421.125L93.1936 421.132C93.147 428.622 94.5761 436.048 97.3994 442.986L97.4006 442.989C100.193 449.975 104.308 456.357 109.52 461.783L109.521 461.785C116.233 468.82 124.587 474.079 133.833 477.09C143.079 480.1 152.927 480.768 162.495 479.032C172.063 477.297 181.05 473.213 188.649 467.147C196.249 461.082 202.224 453.224 206.037 444.279L206.037 444.279C209.159 436.961 210.768 429.088 210.768 421.133C210.768 413.177 209.159 405.304 206.038 397.987C202.907 390.709 198.356 384.128 192.65 378.631C184.189 370.55 173.514 365.169 161.985 363.175C150.456 361.181 138.594 362.663 127.91 367.433C124.447 368.991 121.146 370.886 118.054 373.09C114.989 375.286 112.128 377.752 109.504 380.46C104.295 385.887 100.178 392.265 97.378 399.247L97.3773 399.249C94.5594 406.195 93.1378 413.629 93.1936 421.125ZM94.0437 421.13L94.0426 420.629H94.068C94.1823 406.91 99.3306 393.704 108.545 383.523C117.871 373.22 130.696 366.752 144.526 365.38C158.356 364.007 172.202 367.827 183.372 376.097C194.542 384.367 202.237 396.495 204.96 410.123C207.684 423.751 205.242 437.906 198.109 449.833C190.976 461.761 179.662 470.609 166.367 474.658C153.072 478.706 138.746 477.666 126.176 471.738C113.605 465.811 103.689 455.42 98.3545 442.587C95.5248 435.786 94.0601 428.496 94.0437 421.13Z" fill="#02B784" stroke="#B5D43B"/>
<path d="M87.877 421.624C87.9786 438.119 94.4696 453.94 105.997 465.757C117.641 477.693 133.497 484.593 150.167 484.978L150.168 484.978C162.961 485.3 175.554 481.765 186.311 474.833C197.068 467.901 205.49 457.893 210.483 446.11L210.483 446.11C213.832 438.207 215.559 429.711 215.559 421.127C215.559 412.544 213.833 404.048 210.483 396.145C205.473 384.378 197.047 374.384 186.295 367.457C175.544 360.531 162.961 356.989 150.175 357.291C133.519 357.71 117.686 364.618 106.05 376.542C94.4142 388.466 87.8953 404.463 87.8833 421.124L87.8829 421.624H87.877ZM88.9118 421.124V421.124C88.9096 405.954 94.5491 391.325 104.734 380.082C114.919 368.84 128.921 361.786 144.017 360.294C159.113 358.802 174.225 362.977 186.414 372.009C198.603 381.04 206.997 394.281 209.965 409.158C212.933 424.035 210.262 439.484 202.471 452.501C194.681 465.518 182.328 475.172 167.814 479.587C153.301 484.001 137.665 482.861 123.945 476.386C110.226 469.912 99.4053 458.567 93.5865 444.558L93.5864 444.557C90.5057 437.129 88.9172 429.166 88.9118 421.124Z" fill="#02B784" stroke="#B5D43B"/>
<path d="M214.913 447.959L214.913 447.958C220.31 435.185 221.729 421.08 218.983 407.488C216.238 393.896 209.457 381.448 199.525 371.77C189.816 362.327 177.54 355.954 164.229 353.448C150.919 350.942 137.165 352.414 124.687 357.68C112.208 362.946 101.559 371.774 94.0684 383.058C86.5782 394.343 82.5797 407.585 82.5726 421.129C82.5586 437.031 88.0475 452.448 98.1077 464.764C108.168 477.079 122.18 485.534 137.765 488.694C153.35 491.854 169.548 489.523 183.611 482.098C197.673 474.673 208.733 462.611 214.913 447.959ZM83.7274 421.129V421.129C83.7245 404.665 89.8447 388.789 100.898 376.588C111.951 364.386 127.147 356.732 143.53 355.113C159.914 353.494 176.314 358.026 189.542 367.828C202.769 377.629 211.879 392.001 215.098 408.146C218.318 424.292 215.418 441.058 206.962 455.183C198.505 469.309 185.098 479.785 169.346 484.574C153.595 489.363 136.625 488.123 121.738 481.095C106.85 474.066 95.1082 461.752 88.796 446.546L88.7958 446.546C85.459 438.487 83.737 429.852 83.7274 421.129Z" fill="#02B784" stroke="#B5D43B"/>
<path d="M82.6925 393.178C79.22 401.682 77.3874 410.762 77.2873 419.94L77.3134 419.914L77.3064 421.127C77.2517 430.715 79.0891 440.22 82.7133 449.097C86.3376 457.974 91.6776 466.049 98.4273 472.859L98.4294 472.861C105.178 479.751 113.199 485.265 122.048 489.099C135.518 494.876 150.401 496.521 164.808 493.824C179.215 491.128 192.496 484.212 202.966 473.954C209.961 467.055 215.516 458.834 219.307 449.769C223.098 440.704 225.051 430.976 225.051 421.15C225.051 411.324 223.098 401.597 219.307 392.532C215.516 383.467 209.961 375.246 202.966 368.347C192.49 358.091 179.204 351.178 164.794 348.485C150.384 345.791 135.498 347.438 122.025 353.217C113.181 357.043 105.161 362.544 98.4065 369.418L98.405 369.419C91.6561 376.228 86.3167 384.302 82.6925 393.178ZM83.9905 448.533L83.9904 448.533C80.3925 439.843 78.539 430.53 78.5356 421.125V421.124C78.5423 403.389 85.1442 386.291 97.0577 373.153C108.971 360.015 125.345 351.778 142.995 350.042C160.644 348.306 178.309 353.196 192.554 363.761C206.798 374.326 216.605 389.811 220.067 407.204C223.528 424.598 220.398 442.658 211.283 457.872C202.169 473.086 187.723 484.366 170.753 489.52C153.784 494.674 135.504 493.333 119.468 485.758C103.432 478.183 90.7869 464.915 83.9905 448.533Z" fill="#02B784" stroke="#B5D43B"/>
<path d="M72.0435 420.843L72.067 420.859L72.066 421.127C72.0253 431.396 74.0088 441.571 77.9031 451.073C81.7974 460.574 87.526 469.215 94.7617 476.501L94.7634 476.503C105.695 487.614 119.672 495.239 134.932 498.418C150.191 501.596 166.05 500.185 180.509 494.363L180.51 494.363C190.189 490.478 198.999 484.705 206.426 477.381C213.867 470.022 219.774 461.259 223.806 451.601C227.838 441.943 229.914 431.58 229.914 421.114C229.914 410.648 227.838 400.286 223.806 390.627C219.774 380.969 213.866 372.206 206.425 364.846L206.425 364.846C195.349 353.883 181.273 346.446 165.974 343.473C150.676 340.501 134.84 342.127 120.464 348.146C106.088 354.165 93.8176 364.307 85.2002 377.292C76.6317 390.204 72.0569 405.351 72.0435 420.843ZM73.3188 421.625H73.2948L73.2951 421.125C73.3048 402.097 80.3905 383.753 93.1743 369.659C105.958 355.566 123.526 346.73 142.463 344.87C161.4 343.01 180.351 348.259 195.633 359.596C210.914 370.933 221.434 387.548 225.145 406.211C228.857 424.873 225.495 444.249 215.715 460.57C205.934 476.892 190.433 488.993 172.225 494.52C154.018 500.047 134.406 498.606 117.202 490.476C99.9988 482.346 86.4334 468.109 79.1438 450.533L79.1435 450.532C75.3569 441.361 73.3797 431.545 73.3188 421.625Z" fill="#02B784" stroke="#B5D43B"/>
<path d="M182.556 499.438C167.091 505.709 150.115 507.261 133.77 503.897C117.424 500.533 102.441 492.404 90.7088 480.535L182.556 499.438ZM182.556 499.438C192.887 495.255 202.285 489.062 210.204 481.219L182.556 499.438ZM91.0633 480.183L91.0644 480.184C102.727 491.982 117.622 500.063 133.87 503.407C150.119 506.751 166.994 505.209 182.368 498.975L182.368 498.975C192.638 494.817 201.98 488.661 209.852 480.864L209.854 480.862C217.792 473.093 224.111 463.827 228.444 453.6C232.777 443.373 235.039 432.388 235.098 421.281C235.158 410.174 233.014 399.165 228.791 388.893C224.568 378.62 218.349 369.286 210.495 361.433C202.641 353.579 193.307 347.361 183.034 343.139C172.761 338.916 161.752 336.773 150.645 336.833C139.539 336.894 128.554 339.156 118.327 343.49C108.1 347.824 98.8346 354.142 91.0662 362.081L91.0633 362.084C83.3375 369.848 77.2181 379.06 73.0548 389.191C68.8915 399.322 66.7661 410.175 66.8001 421.128V421.131C66.7667 432.085 68.8924 442.939 73.0556 453.071C77.2188 463.204 83.338 472.416 91.0633 480.183ZM74.2791 452.529L74.279 452.529C70.1563 442.574 68.0327 431.905 68.0292 421.13C68.0296 400.777 75.5998 381.152 89.2674 366.072C102.935 350.992 121.723 341.534 141.977 339.538C162.232 337.542 182.504 343.15 198.853 355.273C215.201 367.395 226.456 385.165 230.43 405.126C234.403 425.087 230.81 445.812 220.349 463.27C209.889 480.729 193.309 493.673 173.834 499.585C154.36 505.497 133.382 503.954 114.981 495.257C96.581 486.56 82.073 471.33 74.2791 452.529Z" fill="#02B784" stroke="#B5D43B"/>
<path d="M213.302 484.262L213.303 484.262C222.665 474.973 229.846 463.72 234.327 451.317C238.809 438.913 240.479 425.669 239.216 412.541C237.954 399.414 233.79 386.73 227.027 375.408C220.264 364.086 211.07 354.408 200.109 347.073C189.149 339.739 176.695 334.931 163.65 332.997C150.604 331.064 137.292 332.053 124.675 335.892C112.058 339.732 100.452 346.327 90.6951 355.201C80.9386 364.074 73.2753 375.004 68.2592 387.201C63.8562 397.966 61.6119 409.492 61.6538 421.123V421.125C61.6369 438.701 66.8284 455.888 76.5729 470.516C86.3174 485.143 100.178 496.555 116.404 503.311C132.63 510.067 150.494 511.863 167.74 508.472C184.986 505.082 200.841 496.657 213.302 484.262ZM62.8394 421.624H62.8083L62.8086 421.124C62.8209 399.478 70.883 378.611 85.4269 362.58C99.9709 346.548 119.957 336.499 141.499 334.385C163.042 332.272 184.6 338.246 201.982 351.145C219.364 364.045 231.328 382.947 235.547 404.178C239.765 425.409 235.937 447.449 224.807 466.014C213.677 484.579 196.04 498.341 175.327 504.624C154.613 510.907 132.303 509.262 112.735 500.009C93.1665 490.756 77.7391 474.556 69.4523 454.559L69.452 454.559C65.1418 444.109 62.8969 432.925 62.8394 421.624Z" fill="#02B784" stroke="#B5D43B"/>
<path d="M56.4698 421.125C56.5377 444.374 65.2502 466.766 80.9128 483.948C96.5755 501.129 118.068 511.871 141.212 514.084C164.355 516.297 187.495 509.823 206.129 495.921C224.764 482.02 237.563 461.684 242.035 438.869C246.508 416.055 242.335 392.392 230.329 372.483C218.322 352.575 199.34 337.843 177.075 331.154C154.809 324.465 130.851 326.296 109.86 336.291C88.8697 346.287 72.3472 363.732 63.5059 385.235C58.8315 396.621 56.4408 408.816 56.4698 421.125ZM57.5057 421.126C57.5095 398.146 66.0605 375.988 81.4956 358.962C96.9307 341.936 118.147 331.26 141.017 329.009C163.887 326.759 186.777 333.095 205.235 346.786C223.692 360.476 236.398 380.542 240.881 403.081C245.365 425.621 241.304 449.022 229.491 468.733C217.677 488.445 198.954 503.058 176.963 509.731C154.972 516.403 131.286 514.658 110.51 504.835C89.7349 495.012 73.3557 477.812 64.5581 456.582C59.9017 445.341 57.5052 433.293 57.5057 421.126Z" fill="#02B784" stroke="#B5D43B"/>
<path d="M63.2327 466.055L63.2326 466.055C52.078 444.482 49.3452 419.533 55.5656 396.057C61.786 372.582 76.5151 352.259 96.8883 339.04C117.262 325.822 141.823 320.654 165.795 324.54C189.768 328.426 211.439 341.089 226.593 360.066C241.747 379.044 249.302 402.979 247.787 427.217C246.273 451.456 235.798 474.264 218.4 491.208C201.002 508.152 177.924 518.019 153.654 518.892C129.384 519.764 105.657 511.579 87.0872 495.928L87.087 495.927C77.2543 487.63 69.1491 477.48 63.2327 466.055ZM62.4571 466.455C73.7632 488.201 92.7529 504.965 115.733 513.486C138.714 522.008 164.042 521.678 186.793 512.561C209.544 503.444 228.091 486.192 238.827 464.158C249.563 442.125 251.721 416.887 244.881 393.351C238.041 369.815 222.692 349.664 201.819 336.817C180.946 323.97 156.041 319.346 131.948 323.843C107.854 328.34 86.2941 341.637 71.4606 361.148C56.6271 380.659 49.5803 404.99 51.6907 429.409C52.8172 442.344 56.4754 454.931 62.4571 466.455Z" fill="#02B784" stroke="#B5D43B"/>
<path d="M75.7496 492.624L75.7494 492.624C58.0128 474.153 47.7799 449.745 47.0408 424.148C46.3017 398.55 55.109 373.593 71.7503 354.129C88.3915 334.665 111.677 322.086 137.078 318.838C162.48 315.59 188.181 321.905 209.184 336.555C230.188 351.206 244.992 373.144 250.717 398.104C256.443 423.064 252.681 449.261 240.162 471.601C227.644 493.941 207.265 510.826 182.988 518.974C158.71 527.122 132.27 525.949 108.809 515.684L108.809 515.684C96.3846 510.238 85.1518 502.403 75.7496 492.624ZM75.2754 493.079C93.1723 511.646 117.335 522.894 143.065 524.634C168.795 526.374 194.252 518.482 214.485 502.493C234.719 486.504 248.283 463.562 252.539 438.127C256.795 412.692 251.439 386.583 237.513 364.878C223.587 343.174 202.085 327.424 177.191 320.693C152.296 313.962 125.788 316.73 102.822 328.46C79.8552 340.189 62.0721 360.042 52.9308 384.155C43.7896 408.269 43.9437 434.921 53.3633 458.928C58.3567 471.639 65.8022 483.243 75.2754 493.079Z" fill="#02B784" stroke="#B5D43B"/>
<path d="M56.8695 476.683L56.8694 476.683C43.0824 453.536 38.3968 426.089 43.7239 399.679C49.051 373.27 64.01 349.785 85.6918 333.793C107.374 317.8 134.228 310.444 161.033 313.153C187.838 315.862 212.678 328.444 230.721 348.451C248.764 368.459 258.721 394.462 258.656 421.403C258.591 448.345 248.508 474.299 230.368 494.219C212.228 514.139 187.328 526.6 160.51 529.179C133.692 531.759 106.874 524.272 85.2696 508.175L85.2693 508.175C73.8301 499.641 64.1805 488.94 56.8695 476.683ZM56.5283 476.886C70.4002 500.087 92.4051 517.301 118.264 525.178C144.123 533.056 171.987 531.034 196.439 519.508C220.89 507.981 240.181 487.772 250.559 462.811C260.938 437.851 261.662 409.923 252.591 384.458C243.521 358.993 225.304 337.811 201.483 325.032C177.662 312.253 149.94 308.79 123.707 315.317C97.4747 321.843 74.607 337.893 59.551 360.344C44.495 382.795 38.3269 410.043 42.2462 436.79C44.329 450.963 49.182 464.588 56.5283 476.886Z" fill="#02B784" stroke="#B5D43B"/>
<path d="M44.7653 464.627C34.0437 438.654 33.2977 409.628 42.6822 383.13C52.1223 356.475 71.1384 334.284 96.0325 320.872C120.927 307.46 149.919 303.786 177.372 310.565C204.825 317.343 228.775 334.089 244.565 357.547C256.319 375.008 262.927 395.259 263.865 416.014C263.605 410.109 262.884 404.2 261.693 398.34C256.059 370.612 240.314 345.971 217.52 329.209C194.726 312.446 166.513 304.759 138.366 307.644C110.22 310.529 84.1521 323.779 65.2326 344.817C46.3131 365.855 35.8942 393.178 36.002 421.472C36.0657 436.463 39.0796 451.296 44.8718 465.124C54.726 488.619 72.1318 508.059 94.213 520.447C85.3552 515.465 77.1362 509.281 69.8092 502.008L70.1615 501.653L69.8092 502.008C59.1796 491.453 50.7305 478.911 44.9434 465.094L44.7502 464.633L44.7653 464.627Z" fill="#02B784" stroke="#B5D43B"/>
<path d="M150.157 540.47C84.2475 540.47 30.8175 487.04 30.8175 421.13C30.8175 355.221 84.2475 301.791 150.157 301.791C216.066 301.791 269.496 355.221 269.496 421.13C269.496 487.04 216.066 540.47 150.157 540.47Z" stroke="#B5D43B" stroke-miterlimit="10"/>
</g>
</g>
<defs>
<linearGradient id="paint0_linear_9_16977" x1="408.321" y1="341.484" x2="336.101" y2="346.812" gradientUnits="userSpaceOnUse">
<stop stop-color="#B5D43B"/>
<stop offset="1" stop-color="#434738"/>
</linearGradient>
<linearGradient id="paint1_linear_9_16977" x1="411.992" y1="337.672" x2="331.488" y2="343.617" gradientUnits="userSpaceOnUse">
<stop stop-color="#B5D43B"/>
<stop offset="1" stop-color="#434738"/>
</linearGradient>
<linearGradient id="paint2_linear_9_16977" x1="415.65" y1="333.842" x2="326.892" y2="340.4" gradientUnits="userSpaceOnUse">
<stop stop-color="#B5D43B"/>
<stop offset="1" stop-color="#434738"/>
</linearGradient>
<linearGradient id="paint3_linear_9_16977" x1="419.296" y1="330.018" x2="322.31" y2="337.185" gradientUnits="userSpaceOnUse">
<stop stop-color="#B5D43B"/>
<stop offset="1" stop-color="#434738"/>
</linearGradient>
<linearGradient id="paint4_linear_9_16977" x1="423.001" y1="326.188" x2="317.748" y2="333.969" gradientUnits="userSpaceOnUse">
<stop stop-color="#B5D43B"/>
<stop offset="1" stop-color="#434738"/>
</linearGradient>
<linearGradient id="paint5_linear_9_16977" x1="426.702" y1="322.375" x2="313.195" y2="330.768" gradientUnits="userSpaceOnUse">
<stop stop-color="#B5D43B"/>
<stop offset="1" stop-color="#434738"/>
</linearGradient>
<linearGradient id="paint6_linear_9_16977" x1="430.338" y1="318.551" x2="308.657" y2="327.544" gradientUnits="userSpaceOnUse">
<stop stop-color="#B5D43B"/>
<stop offset="1" stop-color="#434738"/>
</linearGradient>
<linearGradient id="paint7_linear_9_16977" x1="434.098" y1="314.6" x2="304.153" y2="324.199" gradientUnits="userSpaceOnUse">
<stop stop-color="#B5D43B"/>
<stop offset="1" stop-color="#434738"/>
</linearGradient>
<linearGradient id="paint8_linear_9_16977" x1="438.102" y1="310.652" x2="299.628" y2="320.894" gradientUnits="userSpaceOnUse">
<stop stop-color="#B5D43B"/>
<stop offset="1" stop-color="#434738"/>
</linearGradient>
<linearGradient id="paint9_linear_9_16977" x1="441.601" y1="307.006" x2="295.215" y2="317.824" gradientUnits="userSpaceOnUse">
<stop stop-color="#B5D43B"/>
<stop offset="1" stop-color="#434738"/>
</linearGradient>
<linearGradient id="paint10_linear_9_16977" x1="444.821" y1="303.326" x2="290.794" y2="314.718" gradientUnits="userSpaceOnUse">
<stop stop-color="#B5D43B"/>
<stop offset="1" stop-color="#434738"/>
</linearGradient>
<linearGradient id="paint11_linear_9_16977" x1="405.493" y1="272.727" x2="266.804" y2="357.957" gradientUnits="userSpaceOnUse">
<stop stop-color="#B5D43B"/>
<stop offset="1" stop-color="#434738"/>
</linearGradient>
<linearGradient id="paint12_linear_9_16977" x1="375.208" y1="261.914" x2="260.846" y2="389.354" gradientUnits="userSpaceOnUse">
<stop stop-color="#B5D43B"/>
<stop offset="1" stop-color="#434738"/>
</linearGradient>
<linearGradient id="paint13_linear_9_16977" x1="401.992" y1="260.307" x2="255.058" y2="363.337" gradientUnits="userSpaceOnUse">
<stop stop-color="#B5D43B"/>
<stop offset="1" stop-color="#434738"/>
</linearGradient>
<linearGradient id="paint14_linear_9_16977" x1="419.97" y1="260.625" x2="252.555" y2="345.706" gradientUnits="userSpaceOnUse">
<stop stop-color="#B5D43B"/>
<stop offset="1" stop-color="#434738"/>
</linearGradient>
<linearGradient id="paint15_linear_9_16977" x1="464.293" y1="284.4" x2="269.073" y2="298.838" gradientUnits="userSpaceOnUse">
<stop stop-color="#B5D43B"/>
<stop offset="1" stop-color="#434738"/>
</linearGradient>
<linearGradient id="paint16_linear_9_16977" x1="458.685" y1="79.0723" x2="387.732" y2="84.3061" gradientUnits="userSpaceOnUse">
<stop stop-color="#B5D43B"/>
<stop offset="1" stop-color="#434738"/>
</linearGradient>
<linearGradient id="paint17_linear_9_16977" x1="462.289" y1="75.3262" x2="383.198" y2="81.1672" gradientUnits="userSpaceOnUse">
<stop stop-color="#B5D43B"/>
<stop offset="1" stop-color="#434738"/>
</linearGradient>
<linearGradient id="paint18_linear_9_16977" x1="465.884" y1="71.5645" x2="378.684" y2="78.0071" gradientUnits="userSpaceOnUse">
<stop stop-color="#B5D43B"/>
<stop offset="1" stop-color="#434738"/>
</linearGradient>
<linearGradient id="paint19_linear_9_16977" x1="469.467" y1="67.8066" x2="374.182" y2="74.8485" gradientUnits="userSpaceOnUse">
<stop stop-color="#B5D43B"/>
<stop offset="1" stop-color="#434738"/>
</linearGradient>
<linearGradient id="paint20_linear_9_16977" x1="473.106" y1="64.0449" x2="369.7" y2="71.6901" gradientUnits="userSpaceOnUse">
<stop stop-color="#B5D43B"/>
<stop offset="1" stop-color="#434738"/>
</linearGradient>
<linearGradient id="paint21_linear_9_16977" x1="476.742" y1="60.2988" x2="365.226" y2="68.5442" gradientUnits="userSpaceOnUse">
<stop stop-color="#B5D43B"/>
<stop offset="1" stop-color="#434738"/>
</linearGradient>
<linearGradient id="paint22_linear_9_16977" x1="480.314" y1="56.541" x2="360.768" y2="65.3768" gradientUnits="userSpaceOnUse">
<stop stop-color="#B5D43B"/>
<stop offset="1" stop-color="#434738"/>
</linearGradient>
<linearGradient id="paint23_linear_9_16977" x1="484.008" y1="52.6582" x2="356.343" y2="62.0893" gradientUnits="userSpaceOnUse">
<stop stop-color="#B5D43B"/>
<stop offset="1" stop-color="#434738"/>
</linearGradient>
<linearGradient id="paint24_linear_9_16977" x1="487.943" y1="48.7813" x2="351.899" y2="58.8428" gradientUnits="userSpaceOnUse">
<stop stop-color="#B5D43B"/>
<stop offset="1" stop-color="#434738"/>
</linearGradient>
<linearGradient id="paint25_linear_9_16977" x1="491.38" y1="45.1992" x2="347.563" y2="55.8276" gradientUnits="userSpaceOnUse">
<stop stop-color="#B5D43B"/>
<stop offset="1" stop-color="#434738"/>
</linearGradient>
<linearGradient id="paint26_linear_9_16977" x1="494.543" y1="41.584" x2="343.218" y2="52.7756" gradientUnits="userSpaceOnUse">
<stop stop-color="#B5D43B"/>
<stop offset="1" stop-color="#434738"/>
</linearGradient>
<linearGradient id="paint27_linear_9_16977" x1="455.905" y1="11.5203" x2="319.65" y2="95.255" gradientUnits="userSpaceOnUse">
<stop stop-color="#B5D43B"/>
<stop offset="1" stop-color="#434738"/>
</linearGradient>
<linearGradient id="paint28_linear_9_16977" x1="426.151" y1="0.898288" x2="313.795" y2="126.103" gradientUnits="userSpaceOnUse">
<stop stop-color="#B5D43B"/>
<stop offset="1" stop-color="#434738"/>
</linearGradient>
<linearGradient id="paint29_linear_9_16977" x1="452.466" y1="-0.680907" x2="308.109" y2="100.541" gradientUnits="userSpaceOnUse">
<stop stop-color="#B5D43B"/>
<stop offset="1" stop-color="#434738"/>
</linearGradient>
<linearGradient id="paint30_linear_9_16977" x1="470.129" y1="-0.36718" x2="305.651" y2="83.2206" gradientUnits="userSpaceOnUse">
<stop stop-color="#B5D43B"/>
<stop offset="1" stop-color="#434738"/>
</linearGradient>
<linearGradient id="paint31_linear_9_16977" x1="513.673" y1="22.9902" x2="321.878" y2="37.175" gradientUnits="userSpaceOnUse">
<stop stop-color="#B5D43B"/>
<stop offset="1" stop-color="#434738"/>
</linearGradient>
</defs>
</svg>
